<svg version="1.1" viewBox="0.0 0.0 960.0 540.0" fill="none" stroke="none" stroke-linecap="square" stroke-miterlimit="10" xmlns:xlink="http://www.w3.org/1999/xlink" xmlns="http://www.w3.org/2000/svg"><clipPath id="p.0"><path d="m0 0l960.0 0l0 540.0l-960.0 0l0 -540.0z" clip-rule="nonzero"/></clipPath><g clip-path="url(#p.0)"><path fill="#cfe2f3" d="m0 0l960.0 0l0 540.0l-960.0 0z" fill-rule="evenodd"/><path fill="#000000" fill-opacity="0.0" d="m779.5378 320.54327l2.315796 4.0102844l-2.315796 4.0667725l-4.6880493 0l-2.315857 -4.0667725l2.315857 -4.0102844l4.6880493 0" fill-rule="evenodd"/><path stroke="#daebff" stroke-width="1.0" stroke-linejoin="round" stroke-linecap="butt" d="m779.5378 320.54327l2.315796 4.0102844l-2.315796 4.0667725l-4.6880493 0l-2.315857 -4.0667725l2.315857 -4.0102844l4.6880493 0" fill-rule="evenodd"/><path fill="#131c2b" d="m800.2106 406.56683l2.1463623 0l0 39.820526l-4.2927246 0l0 -39.820526l2.1463623 0" fill-rule="evenodd"/><path fill="#666d96" d="m798.2901 370.13535c-2.9935913 0 -5.196411 -2.7111816 -4.631592 -5.704773l4.97052 -24.00531c0.39538574 -2.2028198 2.3722534 -3.7278748 4.5751343 -3.7278748l21.407043 0c2.9371338 0 5.196411 2.7111816 4.5751343 5.6483154l-4.9140625 24.00528c-0.45184326 2.2028503 -2.3722534 3.7843628 -4.631592 3.7843628l-21.350586 0" fill-rule="evenodd"/><path fill="#575d81" d="m793.54553 370.13535c-3.0500488 0 -5.2529297 -2.7111816 -4.6881104 -5.704773l4.9140625 -24.00531c0.5083618 -2.2028198 2.428772 -3.7278748 4.6881104 -3.7278748l21.294067 0c3.0501099 0 5.2529297 2.7111816 4.631592 5.6483154l-4.9140015 24.00528c-0.45184326 2.2028503 -2.3723145 3.7843628 -4.631592 3.7843628l-21.294128 0" fill-rule="evenodd"/><path fill="#575d81" d="m776.82654 397.9814l45.412354 0c1.2426758 0 2.2593384 1.0166931 2.2593384 2.315796l0 3.953827c0 1.2426147 -1.0166626 2.2593079 -2.2593384 2.2593079l-48.80133 0c-1.694458 0 -2.9935913 -1.5250549 -2.7676392 -3.2195435c0.45184326 -3.0500793 3.1065674 -5.309387 6.156616 -5.309387" fill-rule="evenodd"/><path fill="#666d96" d="m810.0386 397.9814l12.200317 0c1.2426758 0 2.2593384 1.0166931 2.2593384 2.315796l0 3.953827c0 1.2426147 -1.0166626 2.2593079 -2.2593384 2.2593079l-15.645752 0c-1.694519 0 -2.9371338 -1.5250549 -2.7111816 -3.2195435c0.39538574 -3.0500793 3.0500488 -5.309387 6.156616 -5.309387" fill-rule="evenodd"/><path fill="#53587e" d="m806.7626 395.7786c0.112976074 -0.6213074 0.22595215 -1.2991028 0.33892822 -1.9204102c0.3388672 -1.7509766 0.56481934 -3.5019531 0.6777954 -5.2529297c0 -0.6213074 0.112976074 -1.2991028 0.112976074 -1.9204102c0 -0.90374756 0 -1.7509766 0 -2.598236c0 -0.90371704 0 -1.7509766 0 -2.5982056c0 -0.6777954 -0.112976074 -1.2991333 -0.112976074 -1.9769287c-0.112976074 -1.750946 -0.33892822 -3.5584106 -0.6777954 -5.196411c-0.112976074 -0.6213379 -0.22595215 -1.2991333 -0.33892822 -1.9769287c-0.1694336 -0.73428345 -0.3388672 -1.5250244 -0.56481934 -2.2593079l5.817749 0c0.112976074 0.73428345 0.33892822 1.5250244 0.45184326 2.2593079c0.16949463 0.6777954 0.28240967 1.3555908 0.39538574 1.9769287c0.28240967 1.6380005 0.5083618 3.445465 0.6213379 5.196411c0.05645752 0.6777954 0.112976074 1.2991333 0.112976074 1.9769287c0.05645752 0.847229 0.05645752 1.6944885 0.05645752 2.5982056c0 0.8472595 0 1.6944885 -0.05645752 2.598236c0 0.6213074 -0.056518555 1.2991028 -0.112976074 1.9204102c-0.112976074 1.7509766 -0.33892822 3.5019531 -0.6213379 5.2529297c-0.112976074 0.6213074 -0.22589111 1.2991028 -0.39538574 1.9204102c-0.1694336 0.7907715 -0.3388672 1.581543 -0.45184326 2.315796l-5.817749 0c0.22595215 -0.7342529 0.39538574 -1.5250244 0.56481934 -2.315796" fill-rule="evenodd"/><path fill="#1b2435" d="m796.3697 411.3114c-2.5982056 0 -4.8010254 -2.0898743 -4.8010254 -4.744568l17.170837 0c0 2.6546936 -2.1463623 4.744568 -4.857544 4.744568l-7.512268 0" fill-rule="evenodd"/><path fill="#28364f" d="m820.7704 447.96884c0 0.45184326 -0.112976074 0.73428345 -0.33892822 1.1296387c-0.1694336 0.3388977 -0.45184326 0.56484985 -0.7907715 0.7907715c-0.3388672 0.22595215 -0.7342529 0.3388977 -1.1296387 0.3388977c-0.39538574 0 -0.7342529 -0.11294556 -1.1296387 -0.3388977c-0.33892822 -0.22592163 -0.6213379 -0.45187378 -0.84729004 -0.7907715c-0.22589111 -0.39535522 -0.28240967 -0.6777954 -0.28240967 -1.1296387c0 -0.45187378 0.056518555 -0.7907715 0.28240967 -1.1296692c0.22595215 -0.3388977 0.5083618 -0.6777954 0.84729004 -0.8472595c0.39538574 -0.22592163 0.6777954 -0.28240967 1.1296387 -0.28240967c0.3388672 0 0.7907715 0.056488037 1.1296387 0.28240967c0.33892822 0.16946411 0.6213379 0.5083618 0.7907715 0.8472595c0.22595215 0.3388977 0.33892822 0.6777954 0.33892822 1.1296692" fill-rule="evenodd"/><path fill="#1b2435" d="m819.47125 447.96884c0 0.1694336 -0.05645752 0.3388977 -0.112976074 0.56481934c-0.05645752 0.16946411 -0.22589111 0.28240967 -0.39538574 0.3388977c-0.22589111 0.112976074 -0.3388672 0.112976074 -0.5083008 0.112976074c-0.16949463 0 -0.39538574 0 -0.5083618 -0.112976074c-0.1694336 -0.056488037 -0.33892822 -0.1694336 -0.39538574 -0.3388977c-0.056518555 -0.22592163 -0.1694336 -0.39538574 -0.1694336 -0.56481934c0 -0.16946411 0.11291504 -0.39538574 0.1694336 -0.56484985c0.05645752 -0.11294556 0.22595215 -0.22592163 0.39538574 -0.3388977c0.112976074 -0.11294556 0.28240967 -0.1694336 0.5083618 -0.1694336c0.1694336 0 0.28240967 0.056488037 0.5083008 0.1694336c0.16949463 0.112976074 0.33892822 0.22595215 0.39538574 0.3388977c0.056518555 0.16946411 0.112976074 0.3388977 0.112976074 0.56484985" fill-rule="evenodd"/><path fill="#b1c3eb" d="m818.4546 445.0882c1.5814819 0 2.9370728 1.2991028 2.9370728 2.9371338l-5.7612305 0c0 -1.638031 1.2426147 -2.9371338 2.8241577 -2.9371338" fill-rule="evenodd"/><path fill="#28364f" d="m784.16943 447.96884c0 0.45184326 -0.112976074 0.73428345 -0.33892822 1.1296387c-0.1694336 0.3388977 -0.45184326 0.56484985 -0.7907715 0.7907715c-0.3388672 0.22595215 -0.7342529 0.3388977 -1.1296387 0.3388977c-0.39538574 0 -0.73431396 -0.11294556 -1.1296997 -0.3388977c-0.3388672 -0.22592163 -0.62127686 -0.45187378 -0.847229 -0.7907715c-0.22589111 -0.39535522 -0.28240967 -0.6777954 -0.28240967 -1.1296387c0 -0.45187378 0.056518555 -0.7907715 0.28240967 -1.1296692c0.22595215 -0.3388977 0.5083618 -0.6777954 0.847229 -0.8472595c0.39538574 -0.22592163 0.6777954 -0.28240967 1.1296997 -0.28240967c0.3388672 0 0.7907715 0.056488037 1.1296387 0.28240967c0.33892822 0.16946411 0.6213379 0.5083618 0.7907715 0.8472595c0.22595215 0.3388977 0.33892822 0.6777954 0.33892822 1.1296692" fill-rule="evenodd"/><path fill="#1b2435" d="m782.9833 447.96884c0 0.1694336 0 0.3388977 -0.112976074 0.56481934c-0.112976074 0.16946411 -0.1694336 0.28240967 -0.39538574 0.3388977c-0.1694336 0.112976074 -0.3388672 0.112976074 -0.5083618 0.112976074c-0.1694336 0 -0.39538574 0 -0.5083618 -0.112976074c-0.1694336 -0.056488037 -0.28240967 -0.1694336 -0.3953247 -0.3388977c-0.112976074 -0.22592163 -0.16949463 -0.39538574 -0.16949463 -0.56481934c0 -0.16946411 0.056518555 -0.39538574 0.16949463 -0.56484985c0.11291504 -0.11294556 0.22589111 -0.22592163 0.3953247 -0.3388977c0.112976074 -0.11294556 0.2824707 -0.1694336 0.5083618 -0.1694336c0.16949463 0 0.33892822 0.056488037 0.5083618 0.1694336c0.22595215 0.112976074 0.28240967 0.22595215 0.39538574 0.3388977c0.112976074 0.16946411 0.112976074 0.3388977 0.112976074 0.56484985" fill-rule="evenodd"/><path fill="#b1c3eb" d="m781.9101 445.0882c1.6380005 0 2.9371338 1.2991028 2.9371338 2.9371338l-5.7612915 0c0 -1.638031 1.2426147 -2.9371338 2.8241577 -2.9371338" fill-rule="evenodd"/><path fill="#28364f" d="m802.35693 447.96884c0 0.45184326 -0.056518555 0.73428345 -0.28240967 1.1296387c-0.22595215 0.3388977 -0.5083618 0.56484985 -0.84729004 0.7907715c-0.3388672 0.22595215 -0.6777954 0.3388977 -1.1296387 0.3388977c-0.45184326 0 -0.7342529 -0.11294556 -1.1296387 -0.3388977c-0.33892822 -0.22592163 -0.56481934 -0.45187378 -0.7907715 -0.7907715c-0.22595215 -0.39535522 -0.33892822 -0.6777954 -0.33892822 -1.1296387c0 -0.45187378 0.112976074 -0.7907715 0.33892822 -1.1296692c0.22595215 -0.3388977 0.45184326 -0.6777954 0.7907715 -0.8472595c0.39538574 -0.22592163 0.6777954 -0.28240967 1.1296387 -0.28240967c0.45184326 0 0.7907715 0.056488037 1.1296387 0.28240967c0.33892822 0.16946411 0.6213379 0.5083618 0.84729004 0.8472595c0.22589111 0.3388977 0.28240967 0.6777954 0.28240967 1.1296692" fill-rule="evenodd"/><path fill="#1b2435" d="m801.1708 447.96884c0 0.1694336 -0.05645752 0.3388977 -0.1694336 0.56481934c-0.112976074 0.16946411 -0.22595215 0.28240967 -0.33892822 0.3388977c-0.1694336 0.112976074 -0.39538574 0.112976074 -0.56481934 0.112976074c-0.1694336 0 -0.3388672 0 -0.56481934 -0.112976074c-0.1694336 -0.056488037 -0.28240967 -0.1694336 -0.33892822 -0.3388977c-0.11291504 -0.22592163 -0.11291504 -0.39538574 -0.11291504 -0.56481934c0 -0.16946411 0 -0.39538574 0.11291504 -0.56484985c0.056518555 -0.11294556 0.16949463 -0.22592163 0.33892822 -0.3388977c0.22595215 -0.11294556 0.39538574 -0.1694336 0.56481934 -0.1694336c0.22595215 0 0.39538574 0.056488037 0.56481934 0.1694336c0.112976074 0.112976074 0.22595215 0.22595215 0.33892822 0.3388977c0.112976074 0.16946411 0.1694336 0.3388977 0.1694336 0.56484985" fill-rule="evenodd"/><path fill="#b1c3eb" d="m800.0976 445.0882c1.6380005 0 2.9371338 1.2991028 2.9371338 2.9371338l-5.7612915 0c0 -1.638031 1.2426147 -2.9371338 2.8241577 -2.9371338" fill-rule="evenodd"/><path fill="#1b2435" d="m777.27844 446.3873c0 -1.5250244 1.1861572 -2.7111816 2.654663 -2.7111816l40.441895 0c1.5250244 0 2.7111816 1.1861572 2.7111816 2.7111816l-45.80774 0" fill-rule="evenodd"/><path fill="#1b2435" d="m798.12067 438.93155l4.236267 0c0.62127686 0 1.0166626 0.5083618 1.0166626 1.0731812l0 6.382599l-6.326111 0l0 -6.382599c0 -0.56481934 0.4519043 -1.0731812 1.0731812 -1.0731812" fill-rule="evenodd"/><path fill="#222e45" d="m799.64575 443.67612l1.0731812 0c1.4685059 0 2.654663 1.1861572 2.654663 2.7111816l-6.326111 0c0 -1.5250244 1.1861572 -2.7111816 2.5982666 -2.7111816" fill-rule="evenodd"/><path fill="#b1c3eb" d="m804.7857 398.03793c2.315796 -8.698395 2.315796 -19.204254 0 -27.959106l5.7612305 0c2.2593384 8.754852 2.2593384 19.260712 0 27.959106l-5.7612305 0" fill-rule="evenodd"/><path fill="#ffffff" d="m756.37976 447.57346l8.754883 -2.541748c2.2593384 1.9204407 1.7509766 5.3094177 -0.45184326 5.365906c-2.2593384 0.056488037 -17.735718 -0.056488037 -17.735718 -0.7907715c0 -1.6380005 9.432678 -2.0333862 9.432678 -2.0333862" fill-rule="evenodd"/><path fill="#f47d5b" d="m743.78406 309.1902c0 0 4.8010864 -4.0667725 5.2529297 -3.9537964c0.5083618 0.22592163 0.6777954 1.6944885 -2.2028198 3.7278748l-3.0501099 0.22592163" fill-rule="evenodd"/><path fill="#ed9170" d="m743.89703 319.7525l0.28240967 -5.1399536c0 0 -0.56481934 -3.8408203 -0.56481934 -5.309387c0.112976074 -0.73428345 6.8344727 -2.0898743 6.9473877 -1.2991028c0.5083618 3.5584106 -3.3324585 4.349182 -3.3324585 4.349182l0.7342529 7.17334c0 0 -2.2028198 2.2028503 -4.0667725 0.22592163" fill-rule="evenodd"/><path fill="#000644" d="m755.3631 398.0944c0 0 -8.472473 -11.635498 -6.3826294 -16.097656c1.694519 -3.5584412 4.857544 -3.7278748 8.698425 -3.7278748c10.336365 0 10.223389 19.825531 10.223389 19.825531l-12.539185 0" fill-rule="evenodd"/><path fill="#f47d5b" d="m766.4337 379.51147c13.951355 0.6777954 9.263245 13.951324 9.263245 13.951324l-11.522522 0c16.5495 39.368652 12.708679 43.378967 12.708679 43.378967c0 0 -29.82306 -47.332794 -29.032288 -52.19034c1.1861572 -7.286316 18.582886 -5.1399536 18.582886 -5.1399536" fill-rule="evenodd"/><path fill="#4c1e2b" d="m777.7303 311.506c-0.11291504 -4.3492126 -1.8638916 -8.980804 2.1463623 -12.313293c3.5019531 -2.9371338 7.625244 -1.3555908 9.997498 0c1.9769287 -1.5250549 5.8742676 -2.6547241 8.190063 -0.5083618c5.2529297 4.914032 9.0372925 19.091278 9.09375 23.383972c0.056518555 2.8806458 -0.7907715 6.4390564 -3.1065674 8.190033c1.1861572 1.1861572 1.1296997 3.445465 -0.112976074 4.5186462c-5.083435 4.2362366 -22.480225 4.2362366 -27.733154 -1.4120789c-0.7907715 -0.90371704 -0.1694336 -3.445465 1.1296997 -3.5584106c-1.1296997 -0.73428345 -3.7843628 -0.6213379 -4.744629 -3.953827c-0.9036865 -2.9935913 5.365906 -9.206726 5.1399536 -14.34668" fill-rule="evenodd"/><path fill="#ffffff" d="m742.37195 317.32373l6.8344727 -1.3555908l4.631592 21.745972l28.919312 -7.6817017c0 0 3.6713867 1.581543 -3.5019531 12.539246c0 0 -22.423767 4.914032 -28.580383 4.1232605c-4.1797485 -0.56484985 -8.30304 -29.371185 -8.30304 -29.371185" fill-rule="evenodd"/><path fill="#ffffff" d="m787.3889 330.0324l0 48.23651l-10.110474 0c0.5083618 -7.45578 -1.4685059 -27.450775 -1.4685059 -30.218445c0 -2.7676697 6.9473877 -18.018066 6.9473877 -18.018066l4.631592 0" fill-rule="evenodd"/><path fill="#000000" fill-opacity="0.0" d="m787.3889 330.0324l-5.7612305 5.0269775l3.7278442 6.89093l-4.6880493 2.8806458c0 0 -1.9769287 35.697266 4.0667725 39.70755" fill-rule="evenodd"/><path stroke="#6e72a1" stroke-width="1.0" stroke-miterlimit="8.0" stroke-linecap="butt" d="m787.3889 330.0324l-5.7612305 5.0269775l3.7278442 6.89093l-4.6880493 2.8806458c0 0 -1.9769287 35.697266 4.0667725 39.70755" fill-rule="evenodd"/><path fill="#fb9773" d="m773.60706 379.68094c14.34668 1.6380005 12.200378 18.413452 12.200378 18.413452l-19.712585 0c3.9537964 39.312195 -1.4685669 45.694763 -1.4685669 45.694763c0 0 -9.150269 -56.200592 -8.528931 -60.15442c0.9036865 -5.3658752 17.509705 -3.9537964 17.509705 -3.9537964" fill-rule="evenodd"/><path fill="#000644" d="m757.73535 378.26886l47.95404 0c0 0 2.7111816 7.9641113 0.90374756 15.024475c-0.7342529 2.8806458 -3.3325195 4.801056 -6.213135 4.801056l-34.2287 0c0 0 -0.73431396 -17.622711 -8.415955 -19.825531" fill-rule="evenodd"/><path fill="#000000" fill-opacity="0.0" d="m768.5801 394.25354c0 0 25.699768 0 29.201721 0c3.5019531 0 7.907593 -7.060364 6.156616 -15.98468" fill-rule="evenodd"/><path stroke="#1b2e94" stroke-width="1.0" stroke-miterlimit="8.0" stroke-linecap="butt" d="m768.5801 394.25354c0 0 25.699768 0 29.201721 0c3.5019531 0 7.907593 -7.060364 6.156616 -15.98468" fill-rule="evenodd"/><path fill="#fb9773" d="m796.0873 320.31732l0.22595215 9.6586c0 0 -3.9537964 2.9936218 -7.17334 0l0 -9.6586l6.9473877 0" fill-rule="evenodd"/><path fill="#f47d5b" d="m789.25287 320.31732l3.4454346 3.1630554l-3.4454346 5.365906l0 -8.528961" fill-rule="evenodd"/><path fill="#fb9773" d="m782.1925 306.8179l13.668884 0l0.3388672 16.662506l-9.319702 0c-2.428772 0 -4.4056396 -1.9769287 -4.462158 -4.3492126l-0.22589111 -12.313293" fill-rule="evenodd"/><path fill="#fb9773" d="m794.67523 316.4765c0.112976074 -1.4120789 1.1296387 -2.541748 2.541748 -2.598236c1.2990723 -0.11294556 2.428772 1.0166931 2.428772 2.3158264c-0.056518555 1.3555908 -1.1296997 2.5417175 -2.428772 2.5982056c-1.4121094 0.056488037 -2.541748 -0.9602051 -2.541748 -2.315796" fill-rule="evenodd"/><path fill="#4c1e2b" d="m786.37225 311.33655c0 0.39538574 -1.5250244 0.73428345 -2.428772 0.73428345c-0.90374756 -0.056488037 -1.2426147 -0.3388977 -1.2426147 -0.73428345c0 -0.3388977 1.1296387 -0.6213074 2.0333862 -0.6213074c0.9602051 0 1.6380005 0.3388977 1.6380005 0.6213074" fill-rule="evenodd"/><path fill="#2c1817" d="m786.2028 314.61255c0 0.45187378 -0.16949463 0.9602051 -0.39538574 0.9602051c-0.28240967 0 -0.5083618 -0.5083313 -0.4519043 -0.9602051c0 -0.56481934 0.16949463 -0.9602051 0.4519043 -0.9602051c0.22589111 0 0.39538574 0.39538574 0.39538574 0.9602051" fill-rule="evenodd"/><path fill="#4c1e2b" d="m790.04364 311.4495c0 -0.3388977 0.7907715 -0.6213074 1.694458 -0.6213074c0.90374756 0 2.0333862 0.3388977 2.0333862 0.6777954c0 0.3388977 -0.3388672 0.6777954 -1.2426147 0.6777954c-0.9036865 0 -2.4852295 -0.3388977 -2.4852295 -0.73428345" fill-rule="evenodd"/><path fill="#2c1817" d="m790.2696 314.61255c0 -0.5083313 0.1694336 -0.90371704 0.45184326 -0.90371704c0.22595215 0 0.39538574 0.39538574 0.39538574 0.90371704c0 0.5083618 -0.1694336 1.0166931 -0.39538574 1.0166931c-0.28240967 0 -0.5083618 -0.5083313 -0.45184326 -1.0166931" fill-rule="evenodd"/><path fill="#cfe7f5" d="m788.29266 313.59586l-0.7907715 4.68808l1.4121094 0" fill-rule="evenodd"/><path stroke="#f47d5b" stroke-width="1.0" stroke-linejoin="round" stroke-linecap="butt" d="m788.29266 313.59586l-0.7907715 4.68808l1.4121094 0" fill-rule="evenodd"/><path fill="#000000" fill-opacity="0.0" d="m796.5392 317.26724c-0.112976074 -0.39535522 -0.112976074 -0.9602051 0.22589111 -1.3555908c0.33892822 -0.3388977 0.90374756 -0.45184326 1.2991333 -0.3388977" fill-rule="evenodd"/><path stroke="#f47d5b" stroke-width="1.0" stroke-miterlimit="8.0" stroke-linecap="butt" d="m796.5392 317.26724c-0.112976074 -0.39535522 -0.112976074 -0.9602051 0.22589111 -1.3555908c0.33892822 -0.3388977 0.90374756 -0.45184326 1.2991333 -0.3388977" fill-rule="evenodd"/><path fill="#ffffff" d="m786.37225 320.20438l4.2926636 0c0 0 -0.5083008 1.9204102 -2.1463013 1.9204102c-1.694519 0 -2.1463623 -1.9204102 -2.1463623 -1.9204102" fill-rule="evenodd"/><path fill="#4c1e2b" d="m781.4582 309.1902c-0.112976074 0.16946411 -0.7342529 -0.79074097 -0.7907715 -0.6777954c1.4685669 -2.9935913 4.0667725 -5.5353394 7.2298584 -6.5520325c3.163025 -1.0731506 7.0039062 -0.45184326 9.37616 1.8639526c2.428772 2.315796 3.163086 6.269623 1.4121094 9.150238c-0.5083618 0.73428345 -1.1861572 1.4120789 -1.9769287 1.7509766c-0.847229 0.28240967 -1.8074341 0.112976074 -2.428772 -0.6213074c-0.56481934 -0.6777954 -0.5083618 -1.6944885 -0.45184326 -2.5982056c0.112976074 -1.1296692 0.28240967 -2.541748 0.39538574 -3.6714172c-1.0167236 0.45187378 -2.0899048 0.90374756 -3.163086 1.2426453c-1.5814819 0.56481934 -3.163025 1.0166931 -4.857544 1.1296387c-1.6380005 0.16946411 -3.3324585 -0.22592163 -4.744568 -1.0166931" fill-rule="evenodd"/><path fill="#a1dcfa" d="m787.3889 330.0324l12.256836 0l2.8241577 48.23651l-18.921814 0c-0.112976074 -9.150269 -0.28240967 -27.56372 -0.28240967 -27.56372c0 0 -2.7677002 -3.445465 -2.0334473 -7.229828c0.6777954 -3.8408508 6.1566772 -13.442963 6.1566772 -13.442963" fill-rule="evenodd"/><path fill="#6bb2dc" fill-opacity="0.2" d="m783.20917 350.64868c0 0 2.6547241 -0.39538574 5.1399536 0c2.4852905 0.45187378 5.196472 -0.90371704 5.196472 -0.90371704c0 0 -2.315796 2.2028198 -5.3094482 1.9204102c-2.9935913 -0.39538574 -5.0269775 -0.28240967 -5.0269775 -0.28240967l0 -0.73428345" fill-rule="evenodd"/><path fill="#a1dcfa" d="m787.5019 326.47397l8.81134 0l0 3.5584412l-8.980774 0l0.1694336 -3.5584412" fill-rule="evenodd"/><path fill="#000000" fill-opacity="0.0" d="m783.49164 375.5012l18.82837 0" fill-rule="evenodd"/><path stroke="#6bb2dc" stroke-width="1.0" stroke-miterlimit="8.0" stroke-linecap="butt" d="m783.49164 375.5012l18.82837 0" fill-rule="evenodd"/><path fill="#000000" fill-opacity="0.0" d="m784.8472 370.8696l6.8672485 -11.904541" fill-rule="evenodd"/><path stroke="#6bb2dc" stroke-width="1.0" stroke-miterlimit="8.0" stroke-linecap="butt" d="m784.8472 370.8696l6.8672485 -11.904541" fill-rule="evenodd"/><path fill="#000000" fill-opacity="0.0" d="m789.8742 371.03903l1.697937 -5.697571" fill-rule="evenodd"/><path stroke="#6bb2dc" stroke-width="1.0" stroke-miterlimit="8.0" stroke-linecap="butt" d="m789.8742 371.03903l1.697937 -5.697571" fill-rule="evenodd"/><path fill="#ffffff" d="m796.3697 330.0324l6.552063 0l8.077087 69.643555l-14.459656 0.056488037c-0.2824707 -21.463531 -3.3325195 -40.55481 -5.083496 -51.681976c-0.90374756 -5.874237 1.0166626 -13.555908 4.9140015 -18.018066" fill-rule="evenodd"/><path fill="#000000" fill-opacity="0.0" d="m796.5392 397.3601l14.111877 0" fill-rule="evenodd"/><path stroke="#6e72a1" stroke-width="1.0" stroke-miterlimit="8.0" stroke-linecap="butt" d="m796.5392 397.3601l14.111877 0" fill-rule="evenodd"/><path fill="#000000" fill-opacity="0.0" d="m796.31323 330.0324l3.3325195 6.721466l-4.97052 6.7214966l3.3325195 2.315796c0 0 3.7278442 34.398163 -2.2028809 38.6344" fill-rule="evenodd"/><path stroke="#6e72a1" stroke-width="1.0" stroke-miterlimit="8.0" stroke-linecap="butt" d="m796.31323 330.0324l3.3325195 6.721466l-4.97052 6.7214966l3.3325195 2.315796c0 0 3.7278442 34.398163 -2.2028809 38.6344" fill-rule="evenodd"/><path fill="#000000" fill-opacity="0.0" d="m787.33246 330.0324l8.9991455 0" fill-rule="evenodd"/><path stroke="#6bb2dc" stroke-width="1.0" stroke-miterlimit="8.0" stroke-linecap="butt" d="m787.33246 330.0324l8.9991455 0" fill-rule="evenodd"/><path fill="#000000" fill-opacity="0.0" d="m788.914 326.47397l0 3.5845642" fill-rule="evenodd"/><path stroke="#6bb2dc" stroke-width="1.0" stroke-miterlimit="8.0" stroke-linecap="butt" d="m788.914 326.47397l0 3.5845642" fill-rule="evenodd"/><path fill="#000000" fill-opacity="0.0" d="m791.1168 326.47397l0 3.5845642" fill-rule="evenodd"/><path stroke="#6bb2dc" stroke-width="1.0" stroke-miterlimit="8.0" stroke-linecap="butt" d="m791.1168 326.47397l0 3.5845642" fill-rule="evenodd"/><path fill="#000000" fill-opacity="0.0" d="m793.3761 326.47397l0 3.5845642" fill-rule="evenodd"/><path stroke="#6bb2dc" stroke-width="1.0" stroke-miterlimit="8.0" stroke-linecap="butt" d="m793.3761 326.47397l0 3.5845642" fill-rule="evenodd"/><path fill="#000000" fill-opacity="0.0" d="m764.1179 378.26886c0 0 4.6881104 9.997498 4.6881104 19.825531" fill-rule="evenodd"/><path stroke="#1b2e94" stroke-width="1.0" stroke-miterlimit="8.0" stroke-linecap="butt" d="m764.1179 378.26886c0 0 4.6881104 9.997498 4.6881104 19.825531" fill-rule="evenodd"/><path fill="#000000" fill-opacity="0.0" d="m801.0578 384.4255l7.0181885 5.037262" fill-rule="evenodd"/><path stroke="#6e72a1" stroke-width="1.0" stroke-miterlimit="8.0" stroke-linecap="butt" d="m801.0578 384.4255l7.0181885 5.037262" fill-rule="evenodd"/><path fill="#fb9773" d="m763.6096 437.40652l2.428772 1.1861267c0 0 0.28240967 7.286316 -1.9204712 8.303009c-2.2028198 1.0166931 -7.7946167 0.6213074 -7.7946167 0.6213074c0 -1.5250244 7.512207 -2.5982056 7.286316 -10.110443" fill-rule="evenodd"/><path fill="#ffffff" d="m774.3978 442.377l4.6881104 -7.8511353c2.9371338 -0.11294556 4.9140015 2.6547241 3.3325195 4.2362366c-1.581543 1.5250244 -13.047607 11.974396 -13.555969 11.522522c-1.1296387 -1.2991028 5.5353394 -7.9076233 5.5353394 -7.9076233" fill-rule="evenodd"/><path fill="#f47d5b" d="m772.81635 430.1767l2.8240967 -0.73428345c0 0 4.97052 4.857544 4.010315 7.17334c-0.90374756 2.2028503 -5.196411 5.7612915 -5.196411 5.7612915c-1.0731812 -1.1861572 2.8241577 -5.5918274 -1.6380005 -12.200348" fill-rule="evenodd"/><path fill="#cfe7f5" d="m751.86115 340.25583l1.9769287 -2.541748l0.847229 2.541748" fill-rule="evenodd"/><path stroke="#6e72a1" stroke-width="1.0" stroke-miterlimit="8.0" stroke-linecap="butt" d="m751.86115 340.25583l1.9769287 -2.541748l0.847229 2.541748" fill-rule="evenodd"/><path fill="#fb9773" d="m761.5197 356.46643c0.39538574 -0.45187378 4.1797485 -0.39538574 5.0269775 -0.16946411c0.73431396 0.112976074 2.7677002 2.598236 2.7677002 2.598236c1.1861572 0.28240967 4.744568 0.7907715 4.744568 0.7907715l0.28240967 4.179718c-3.2195435 -1.1296387 -6.4955444 -1.9204102 -9.771545 -2.4287415c-0.33892822 0 -0.84729004 -0.22595215 -0.7907715 -0.6213379c0 -0.11294556 0.05645752 -0.1694336 0 -0.28240967c0 -0.112976074 -0.28240967 -0.112976074 -0.39538574 -0.22592163c-0.112976074 -0.112976074 -0.112976074 -0.3388977 -0.056518555 -0.45187378c0.056518555 -0.73428345 0.2824707 -1.5250244 0.39538574 -2.2593079c0 0 -2.5982056 -0.6777954 -2.2028198 -1.1296692" fill-rule="evenodd"/><path fill="#ffffff" d="m809.86914 339.06967c4.4057007 25.756287 2.7677002 29.82306 -0.22595215 29.82306c-4.970459 0 -37.165833 -4.0667725 -37.165833 -4.0667725l0 -6.382599l34.115784 3.8408508l-3.7279053 -32.2518c3.5019531 0 5.6483154 1.2991028 7.0039062 9.037262" fill-rule="evenodd"/><path fill="#000000" fill-opacity="0.0" d="m772.4774 358.44336l34.17218 3.8408508c0 0 -1.5250244 -12.934631 -2.541687 -21.971924" fill-rule="evenodd"/><path stroke="#6e72a1" stroke-width="1.0" stroke-miterlimit="8.0" stroke-linecap="butt" d="m772.4774 358.44336l34.17218 3.8408508c0 0 -1.5250244 -12.934631 -2.541687 -21.971924" fill-rule="evenodd"/><path fill="#000000" fill-opacity="0.0" d="m787.8408 314.4431c0 1.4685364 -1.1861572 2.6546936 -2.7111816 2.6546936c-1.4685669 0 -2.6547241 -1.1861572 -2.6547241 -2.6546936c0 -1.5250549 1.1861572 -2.7111816 2.6547241 -2.7111816c1.5250244 0 2.7111816 1.1861267 2.7111816 2.7111816" fill-rule="evenodd"/><path stroke="#000644" stroke-width="1.0" stroke-miterlimit="8.0" stroke-linecap="butt" d="m787.8408 314.4431c0 1.4685364 -1.1861572 2.6546936 -2.7111816 2.6546936c-1.4685669 0 -2.6547241 -1.1861572 -2.6547241 -2.6546936c0 -1.5250549 1.1861572 -2.7111816 2.6547241 -2.7111816c1.5250244 0 2.7111816 1.1861267 2.7111816 2.7111816" fill-rule="evenodd"/><path fill="#000000" fill-opacity="0.0" d="m793.941 314.4431c0 1.4685364 -1.1861572 2.6546936 -2.7111816 2.6546936c-1.4685669 0 -2.7111816 -1.1861572 -2.7111816 -2.6546936c0 -1.5250549 1.2426147 -2.7111816 2.7111816 -2.7111816c1.5250244 0 2.7111816 1.1861267 2.7111816 2.7111816" fill-rule="evenodd"/><path stroke="#000644" stroke-width="1.0" stroke-miterlimit="8.0" stroke-linecap="butt" d="m793.941 314.4431c0 1.4685364 -1.1861572 2.6546936 -2.7111816 2.6546936c-1.4685669 0 -2.7111816 -1.1861572 -2.7111816 -2.6546936c0 -1.5250549 1.2426147 -2.7111816 2.7111816 -2.7111816c1.5250244 0 2.7111816 1.1861267 2.7111816 2.7111816" fill-rule="evenodd"/><path fill="#000000" fill-opacity="0.0" d="m787.8408 314.38663l0.6602783 0" fill-rule="evenodd"/><path stroke="#000644" stroke-width="1.0" stroke-miterlimit="8.0" stroke-linecap="butt" d="m787.8408 314.38663l0.6602783 0" fill-rule="evenodd"/><path fill="#ffffff" d="m766.15125 369.06213l91.05066 0l0 3.388977l-182.0448 0l0 -3.388977l90.99414 0" fill-rule="evenodd"/><path fill="#ffffff" d="m863.24554 450.22824l-30.04895 -77.77713l1.8074341 0l30.049011 77.77713l-1.8074951 0" fill-rule="evenodd"/><path fill="#ffffff" d="m803.14764 450.22824l-1.7509766 0l30.04895 -77.77713l1.8074951 0l-30.105469 77.77713" fill-rule="evenodd"/><path fill="#ffffff" d="m737.0626 450.22824l-30.049011 -77.77713l1.7509766 0l30.105469 77.77713l-1.8074341 0" fill-rule="evenodd"/><path fill="#ffffff" d="m676.9647 450.22824l-1.8074951 0l30.049011 -77.77713l1.8074341 0l-30.04895 77.77713" fill-rule="evenodd"/><path fill="#000000" fill-opacity="0.0" d="m857.2019 434.24347l-48.014343 0" fill-rule="evenodd"/><path stroke="#ffffff" stroke-width="1.0" stroke-miterlimit="8.0" stroke-linecap="butt" d="m857.2019 434.24347l-48.014343 0" fill-rule="evenodd"/><path fill="#000000" fill-opacity="0.0" d="m731.07544 434.24347l-48.014343 0" fill-rule="evenodd"/><path stroke="#ffffff" stroke-width="1.0" stroke-miterlimit="8.0" stroke-linecap="butt" d="m731.07544 434.24347l-48.014343 0" fill-rule="evenodd"/><path fill="#8d92b8" d="m739.4349 367.5371l-29.992493 0l-4.9140015 -16.493042c-0.28240967 -0.7907715 0.22595215 -1.4120789 1.0167236 -1.4120789l27.111816 0c0.7907715 0 1.6380005 0.6213074 1.9204102 1.4120789l4.857544 16.493042" fill-rule="evenodd"/><path fill="#ffffff" d="m738.4182 367.5371l-28.97583 0l-4.9140015 -16.493042c-0.28240967 -0.7907715 0.22595215 -1.4120789 1.0167236 -1.4120789l26.095154 0c0.7907715 0 1.6380005 0.6213074 1.9204102 1.4120789l4.857544 16.493042" fill-rule="evenodd"/><path fill="#52557e" d="m721.2474 369.11862c-0.33892822 0 -0.6777954 -0.39538574 -0.6777954 -0.7907715c0 -0.39538574 0.3388672 -0.73428345 0.6777954 -0.73428345l30.105408 0c0.33892822 0 0.73431396 0.3388977 0.73431396 0.73428345c0 0.39538574 -0.39538574 0.7907715 -0.73431396 0.7907715l-30.105408 0" fill-rule="evenodd"/><path fill="#8d92b8" d="m709.4424 369.11862c-0.45184326 0 -0.79071045 -0.39538574 -0.79071045 -0.7907715c0 -0.39538574 0.3388672 -0.73428345 0.79071045 -0.73428345l29.992493 0c0.33892822 0 0.73431396 0.3388977 0.73431396 0.73428345c0 0.39538574 -0.39538574 0.7907715 -0.73431396 0.7907715l-29.992493 0" fill-rule="evenodd"/><path fill="#8d92b8" d="m718.59265 358.6128c-0.3388672 -1.1296692 0.39538574 -1.9769287 1.4685669 -1.9769287c1.1296997 0 2.2593384 0.8472595 2.541748 1.9769287c0.28240967 1.0731812 -0.39538574 1.9768982 -1.4685669 1.9768982c-1.1296387 0 -2.2592773 -0.90371704 -2.541748 -1.9768982" fill-rule="evenodd"/><path fill="#000644" d="m748.6416 368.55377c-0.1694336 0 -0.28240967 -0.11294556 -0.28240967 -0.22592163c0 -0.112976074 0.112976074 -0.28240967 0.28240967 -0.28240967l1.2426147 0c0.16949463 0 0.2824707 0.1694336 0.2824707 0.28240967c0 0.112976074 -0.112976074 0.22592163 -0.2824707 0.22592163l-1.2426147 0" fill-rule="evenodd"/><path fill="#000644" d="m747.399 368.32785c0 -0.112976074 0.112976074 -0.28240967 0.22595215 -0.28240967c0.1694336 0 0.28240967 0.112976074 0.28240967 0.28240967c0 0.112976074 -0.112976074 0.22592163 -0.28240967 0.22592163c-0.112976074 0 -0.22595215 -0.11294556 -0.22595215 -0.22592163" fill-rule="evenodd"/><path fill="#000644" d="m746.49524 368.32785c0 -0.112976074 0.112976074 -0.28240967 0.22595215 -0.28240967c0.1694336 0 0.28240967 0.112976074 0.28240967 0.28240967c0 0.112976074 -0.112976074 0.22592163 -0.28240967 0.22592163c-0.112976074 0 -0.22595215 -0.11294556 -0.22595215 -0.22592163" fill-rule="evenodd"/><path fill="#000000" fill-opacity="0.0" d="m647.1417 450.34113l245.93903 0" fill-rule="evenodd"/><path stroke="#b1c3eb" stroke-width="1.0" stroke-miterlimit="8.0" stroke-linecap="butt" d="m647.1417 450.34113l245.93903 0" fill-rule="evenodd"/><path fill="#ffffff" d="m837.7599 218.16705c18.144836 0 32.887512 -14.753174 32.887512 -32.888336c0 -16.0999 -11.532898 -29.638 -27.13623 -32.361816c-6.2373047 -15.735367 -21.455872 -26.195236 -38.537476 -26.195236c-2.5516357 0 -5.143738 0.26326752 -7.796631 0.78980255c-7.837097 -8.363846 -18.762451 -13.122932 -30.224487 -13.122932c-22.863281 0 -41.44348 18.59082 -41.44348 41.44458c0 0.52653503 0 1.0226898 0.020202637 1.5391083c-9.629272 5.974182 -15.53241 16.464417 -15.53241 27.906494c0 18.135162 14.752747 32.888336 32.88745 32.888336l94.87555 0" fill-rule="evenodd"/><path stroke="#0b5394" stroke-width="1.0" stroke-linejoin="round" stroke-linecap="butt" d="m837.7599 218.16705c18.144836 0 32.887512 -14.753174 32.887512 -32.888336c0 -16.0999 -11.532898 -29.638 -27.13623 -32.361816c-6.2373047 -15.735367 -21.455872 -26.195236 -38.537476 -26.195236c-2.5516357 0 -5.143738 0.26326752 -7.796631 0.78980255c-7.837097 -8.363846 -18.762451 -13.122932 -30.224487 -13.122932c-22.863281 0 -41.44348 18.59082 -41.44348 41.44458c0 0.52653503 0 1.0226898 0.020202637 1.5391083c-9.629272 5.974182 -15.53241 16.464417 -15.53241 27.906494c0 18.135162 14.752747 32.888336 32.88745 32.888336l94.87555 0" fill-rule="evenodd"/><path fill="#000000" fill-opacity="0.0" d="m804.1192 152.09248l0 0c0 -0.8013458 -0.6496582 -1.4509735 -1.4509888 -1.4509735l-36.69934 0c-0.38482666 0 -0.75390625 0.15287781 -1.026001 0.4249878c-0.27209473 0.27211 -0.4249878 0.6411743 -0.4249878 1.0259857l0 5.803726c0 0.8013458 0.6496582 1.4509735 1.4509888 1.4509735l36.69934 0c0.80133057 0 1.4509888 -0.6496277 1.4509888 -1.4509735z" fill-rule="evenodd"/><path stroke="#0b5394" stroke-width="1.0" stroke-linejoin="round" stroke-linecap="butt" d="m804.1192 152.09248l0 0c0 -0.8013458 -0.6496582 -1.4509735 -1.4509888 -1.4509735l-36.69934 0c-0.38482666 0 -0.75390625 0.15287781 -1.026001 0.4249878c-0.27209473 0.27211 -0.4249878 0.6411743 -0.4249878 1.0259857l0 5.803726c0 0.8013458 0.6496582 1.4509735 1.4509888 1.4509735l36.69934 0c0.80133057 0 1.4509888 -0.6496277 1.4509888 -1.4509735z" fill-rule="evenodd"/><path fill="#000000" fill-opacity="0.0" d="m804.1192 163.62422l0 0c0 -0.8013458 -0.6496582 -1.4509735 -1.4509888 -1.4509735l-36.69934 0c-0.38482666 0 -0.75390625 0.15287781 -1.026001 0.4249878c-0.27209473 0.27211 -0.4249878 0.6411743 -0.4249878 1.0259857l0 5.803726c0 0.8013458 0.6496582 1.4509735 1.4509888 1.4509735l36.69934 0c0.80133057 0 1.4509888 -0.6496277 1.4509888 -1.4509735z" fill-rule="evenodd"/><path stroke="#0b5394" stroke-width="1.0" stroke-linejoin="round" stroke-linecap="butt" d="m804.1192 163.62422l0 0c0 -0.8013458 -0.6496582 -1.4509735 -1.4509888 -1.4509735l-36.69934 0c-0.38482666 0 -0.75390625 0.15287781 -1.026001 0.4249878c-0.27209473 0.27211 -0.4249878 0.6411743 -0.4249878 1.0259857l0 5.803726c0 0.8013458 0.6496582 1.4509735 1.4509888 1.4509735l36.69934 0c0.80133057 0 1.4509888 -0.6496277 1.4509888 -1.4509735z" fill-rule="evenodd"/><path fill="#000000" fill-opacity="0.0" d="m804.1192 175.15596l0 0c0 -0.8013458 -0.6496582 -1.4509735 -1.4509888 -1.4509735l-36.69934 0c-0.38482666 0 -0.75390625 0.15287781 -1.026001 0.4249878c-0.27209473 0.27211 -0.4249878 0.6411743 -0.4249878 1.0259857l0 5.803726c0 0.8013458 0.6496582 1.4509735 1.4509888 1.4509735l36.69934 0c0.80133057 0 1.4509888 -0.6496277 1.4509888 -1.4509735z" fill-rule="evenodd"/><path stroke="#0b5394" stroke-width="1.0" stroke-linejoin="round" stroke-linecap="butt" d="m804.1192 175.15596l0 0c0 -0.8013458 -0.6496582 -1.4509735 -1.4509888 -1.4509735l-36.69934 0c-0.38482666 0 -0.75390625 0.15287781 -1.026001 0.4249878c-0.27209473 0.27211 -0.4249878 0.6411743 -0.4249878 1.0259857l0 5.803726c0 0.8013458 0.6496582 1.4509735 1.4509888 1.4509735l36.69934 0c0.80133057 0 1.4509888 -0.6496277 1.4509888 -1.4509735z" fill-rule="evenodd"/><path fill="#000000" fill-opacity="0.0" d="m804.1192 186.6877l0 0c0 -0.8013458 -0.6496582 -1.4509583 -1.4509888 -1.4509583l-36.69934 0c-0.38482666 0 -0.75390625 0.15286255 -1.026001 0.42497253c-0.27209473 0.27211 -0.4249878 0.6411743 -0.4249878 1.0259857l0 5.803726c0 0.8013458 0.6496582 1.4509735 1.4509888 1.4509735l36.69934 0c0.80133057 0 1.4509888 -0.6496277 1.4509888 -1.4509735z" fill-rule="evenodd"/><path stroke="#0b5394" stroke-width="1.0" stroke-linejoin="round" stroke-linecap="butt" d="m804.1192 186.6877l0 0c0 -0.8013458 -0.6496582 -1.4509583 -1.4509888 -1.4509583l-36.69934 0c-0.38482666 0 -0.75390625 0.15286255 -1.026001 0.42497253c-0.27209473 0.27211 -0.4249878 0.6411743 -0.4249878 1.0259857l0 5.803726c0 0.8013458 0.6496582 1.4509735 1.4509888 1.4509735l36.69934 0c0.80133057 0 1.4509888 -0.6496277 1.4509888 -1.4509735z" fill-rule="evenodd"/><path fill="#000000" fill-opacity="0.0" d="m58.59063 75.091866l213.92126 0l0 88.25196l-213.92126 0z" fill-rule="evenodd"/><path fill="#990000" d="m101.02637 107.5316l0 3.828125l-6.15625 0q-2.734375 0 -2.734375 2.125q0 1.140625 1.28125 2.03125q1.296875 0.875 3.671875 1.75q1.140625 0.4375 1.9375 0.890625q0.8125 0.453125 1.640625 1.21875q0.84375 0.765625 1.25 1.96875q0.421875 1.203125 0.421875 2.71875q0 1.734375 -0.734375 3.109375q-0.71875 1.375 -1.859375 2.15625q-1.140625 0.765625 -2.3125 1.15625q-1.15625 0.390625 -2.28125 0.421875q-0.453125 0.03125 -1.3125 0.03125l-5.484375 0l0 -3.8125l5.390625 0q2.015625 0 3.21875 -0.796875q1.21875 -0.796875 1.21875 -2.296875q0 -0.71875 -0.328125 -1.265625q-0.328125 -0.546875 -0.984375 -0.984375q-0.65625 -0.4375 -1.375 -0.765625q-0.71875 -0.34375 -1.765625 -0.734375q-0.28125 -0.09375 -0.453125 -0.15625q-5.34375 -2.046875 -5.34375 -6.75q0 -2.9375 1.890625 -4.390625q1.890625 -1.453125 4.859375 -1.453125l6.34375 0z" fill-rule="nonzero"/><path fill="#073763" d="m118.4669 107.5316l4.015625 0l0 15.859375q0 4.03125 -2.125 5.953125q-2.125 1.90625 -6.28125 1.90625q-4.15625 0 -6.265625 -1.90625q-2.109375 -1.921875 -2.109375 -5.953125l0 -15.859375l4.015625 0l0 16.28125q0 1.921875 1.15625 2.78125q1.15625 0.84375 3.171875 0.84375q2.078125 0 3.25 -0.84375q1.171875 -0.859375 1.171875 -2.78125l0 -16.28125zm12.186035 23.40625l-4.015625 0l0 -15.21875q0 -3.984375 2.171875 -6.234375q2.171875 -2.265625 5.75 -2.265625q3.8125 0 5.921875 2.203125q2.109375 2.1875 2.109375 5.5625q0 2.09375 -0.78125 3.6875q-0.78125 1.578125 -2.09375 2.4375q-1.296875 0.859375 -2.75 1.265625q-1.4375 0.40625 -3.015625 0.40625l-2.890625 0l0 -3.8125l3.25 0q1.921875 0 3.015625 -1.140625q1.09375 -1.15625 1.09375 -2.90625q0 -1.71875 -1.0 -2.796875q-1.0 -1.09375 -2.890625 -1.09375q-1.8125 0 -2.84375 1.234375q-1.03125 1.234375 -1.03125 3.328125l0 15.34375zm28.862793 0l-13.734375 0l0 -17.5625q0 -2.578125 1.65625 -4.15625q1.125 -1.0625 2.5 -1.375q1.375 -0.3125 3.296875 -0.3125l6.28125 0l0 3.828125l-6.703125 0q-3.015625 0 -3.015625 2.4375l0 3.15625l7.390625 0l0 3.8125l-7.390625 0l0 6.359375l9.71875 0l0 3.8125zm3.5216522 0l0 -15.0625q0 -4.0625 2.046875 -6.359375q2.046875 -2.296875 5.78125 -2.296875q3.734375 0 5.796875 1.875q2.0625 1.859375 2.0625 5.21875q0 2.1875 -1.0625 3.59375q-1.0625 1.40625 -3.484375 1.84375l0.015625 -0.125q2.5625 0.65625 3.453125 2.515625q0.890625 1.84375 0.890625 5.890625l0 2.90625l-4.015625 0l0 -4.59375q0 -2.234375 -1.234375 -3.4375q-1.21875 -1.21875 -3.609375 -1.21875l-2.21875 0l0 -3.8125l2.3125 0q2.859375 0 3.90625 -1.09375q1.046875 -1.109375 1.046875 -2.625q0 -1.40625 -1.015625 -2.265625q-1.015625 -0.859375 -2.75 -0.859375q-1.984375 0 -2.953125 1.09375q-0.953125 1.09375 -0.953125 3.75l0 15.0625l-4.015625 0zm30.618042 -7.6875l-0.1875 0l2.328125 -9.765625q0.875 -3.390625 2.75 -4.671875q1.875 -1.28125 6.015625 -1.28125l0 23.40625l-4.015625 0l0 -18.75q0 0 -0.375 0.546875q-0.359375 0.546875 -0.71875 1.75l-4.109375 14.078125l-3.5625 0l-4.140625 -14.078125q-0.359375 -1.234375 -0.71875 -1.765625q-0.34375 -0.53125 -0.34375 -0.53125l0 18.75l-4.015625 0l0 -23.40625q4.15625 0 6.0 1.296875q1.859375 1.296875 2.765625 4.65625l2.328125 9.765625zm28.95642 7.6875l-13.734375 0l0 -17.5625q0 -2.578125 1.65625 -4.15625q1.125 -1.0625 2.5 -1.375q1.375 -0.3125 3.296875 -0.3125l6.28125 0l0 3.828125l-6.703125 0q-3.015625 0 -3.015625 2.4375l0 3.15625l7.390625 0l0 3.8125l-7.390625 0l0 6.359375l9.71875 0l0 3.8125zm20.068542 -11.703125q-0.03125 5.546875 -3.109375 8.625q-3.0625 3.078125 -8.421875 3.078125l-4.859375 0l0 -23.40625l4.859375 0q5.359375 0 8.421875 3.078125q3.078125 3.078125 3.109375 8.625zm-11.15625 7.890625q3.328125 0 5.09375 -2.1875q1.78125 -2.203125 1.84375 -5.703125q-0.0625 -3.484375 -1.84375 -5.671875q-1.765625 -2.203125 -5.09375 -2.203125l-1.21875 0l0 15.765625l1.21875 0z" fill-rule="nonzero"/><path fill="#000000" fill-opacity="0.0" d="m810.4791 235.6798l-35.08661 0l0 48.472427l35.08661 0z" fill-rule="evenodd"/><path fill="#073763" d="m788.98627 266.4073l-0.84375 0l0 -11.15625l-2.8125 2.15625l-0.375 -0.375l3.5625 -5.34375l0.09375 0l3.5625 5.34375l-0.375 0.375l-2.8125 -2.15625l0 11.15625zm5.15625 0.09375l-3.5625 -5.34375l0.375 -0.375l2.8125 2.15625l0 -11.15625l0.84375 0l0 11.15625l2.8125 -2.15625l0.375 0.375l-3.5625 5.34375l-0.09375 0z" fill-rule="nonzero"/></g></svg>