<svg version="1.1" viewBox="0.0 0.0 2645.6692913385828 680.3149606299213" fill="none" stroke="none" stroke-linecap="square" stroke-miterlimit="10" xmlns:xlink="http://www.w3.org/1999/xlink" xmlns="http://www.w3.org/2000/svg"><clipPath id="g6eb8b06749_0_0.0"><path d="m0 0l2645.6692 0l0 680.31494l-2645.6692 0l0 -680.31494z" clip-rule="nonzero"/></clipPath><g clip-path="url(#g6eb8b06749_0_0.0)"><path fill="#000000" fill-opacity="0.0" d="m0 0l2645.6692 0l0 680.31494l-2645.6692 0z" fill-rule="evenodd"/><path fill="#000000" fill-opacity="0.0" d="m738.0 23.984251l1979.685 0l0 680.31494l-1979.685 0z" fill-rule="evenodd"/><path fill="#0b5394" d="m848.53125 141.00299l12.875 0l27.53125 85.78125l27.453125 -85.78125l12.875 0l-35.34375 105.21875l-10.125 0l-35.265625 -105.21875zm-4.1875 0l11.28125 0l1.953125 64.171875l0 41.046875l-13.234375 0l0 -105.21875zm77.765625 0l11.265625 0l0 105.21875l-13.21875 0l0 -41.046875l1.953125 -64.171875zm90.62305 93.875l0 11.34375l-45.671875 0l0 -11.34375l45.671875 0zm-43.296875 -93.875l0 105.21875l-13.296875 0l0 -105.21875l13.296875 0zm37.140625 45.234375l0 11.34375l-39.515625 0l0 -11.34375l39.515625 0zm5.421875 -45.234375l0 11.421875l-44.9375 0l0 -11.421875l44.9375 0zm87.66016 93.875l0 11.34375l-65.96875 0l0 -11.34375l65.96875 0zm-63.953125 0l0 37.21875l-13.21875 0l-0.078125 -37.21875l13.296875 0zm75.515625 0l-0.140625 37.140625l-13.15625 0l0 -37.140625l13.296875 0zm-23.984375 -93.875l0 11.421875l-38.15625 0l0 -11.421875l38.15625 0zm11.625 0l0 105.21875l-13.296875 0l0 -105.21875l13.296875 0zm-54.34375 0l13.296875 0l-1.875 42.34375q-0.359375 9.546875 -1.453125 17.609375q-1.078125 8.046875 -2.78125 14.703125q-1.6875 6.640625 -3.859375 11.890625q-2.171875 5.234375 -4.703125 9.03125q-2.515625 3.78125 -5.34375 6.203125q-2.8125 2.421875 -5.78125 3.4375l-5.5625 0l0 -11.34375l3.6875 0q1.59375 -2.03125 3.5 -5.859375q1.921875 -3.828125 3.765625 -9.9375q1.84375 -6.109375 3.25 -14.921875q1.40625 -8.8125 1.90625 -20.8125l1.953125 -42.34375zm96.765625 81.078125l40.984375 -81.078125l13.296875 0l0 105.21875l-13.296875 0l0 -81.15625l-40.984375 81.15625l-13.21875 0l0 -105.21875l13.21875 0l0 81.078125zm155.73633 12.4375l-1.296875 37.0625l-11.859375 0l0 -25.359375l-8.734375 0l0 -11.703125l21.890625 0zm-77.25 11.703125l0 -105.21875l13.296875 0l0 93.875l41.109375 0l0 -93.875l13.296875 0l0 105.21875l-67.703125 0zm107.88672 -24.140625l40.984375 -81.078125l13.296875 0l0 105.21875l-13.296875 0l0 -81.15625l-40.984375 81.15625l-13.21875 0l0 -105.21875l13.21875 0l0 81.078125zm134.92383 -35.84375l0 11.34375l-45.59375 0l0 -11.34375l45.59375 0zm-43.796875 -45.234375l0 105.21875l-13.296875 0l0 -105.21875l13.296875 0zm55.578125 0l0 105.21875l-13.296875 0l0 -105.21875l13.296875 0zm75.58984 71.765625l13.296875 0q-0.515625 10.828125 -4.375 18.671875q-3.859375 7.84375 -11.203125 12.046875q-7.328125 4.1875 -18.3125 4.1875q-7.875 0 -14.234375 -3.109375q-6.359375 -3.109375 -10.890625 -8.921875q-4.515625 -5.828125 -6.90625 -13.984375q-2.375 -8.171875 -2.375 -18.359375l0 -19.4375q0 -10.125 2.421875 -18.28125q2.421875 -8.171875 7.0 -13.984375q4.59375 -5.828125 11.203125 -8.9375q6.625 -3.109375 15.0 -3.109375q10.265625 0 17.375 4.09375q7.125 4.078125 10.984375 11.921875q3.875 7.84375 4.3125 19.1875l-13.296875 0q-0.515625 -8.3125 -2.609375 -13.546875q-2.09375 -5.25 -6.171875 -7.734375q-4.078125 -2.5 -10.59375 -2.5q-5.78125 0 -10.015625 2.3125q-4.21875 2.3125 -6.9375 6.625q-2.703125 4.296875 -4.046875 10.328125q-1.328125 6.03125 -1.328125 13.46875l0 19.59375q0 6.9375 1.125 12.9375q1.125 5.984375 3.609375 10.515625q2.5 4.515625 6.546875 7.046875q4.046875 2.515625 9.828125 2.515625q7.296875 0 11.5625 -2.375q4.265625 -2.390625 6.3125 -7.59375q2.0625 -5.203125 2.71875 -13.578125zm45.166016 -71.765625l0 105.21875l-13.296875 0l0 -105.21875l13.296875 0zm54.125 0l-38.015625 57.890625l-21.390625 0l-2.234375 -11.5625l15.609375 0l29.546875 -46.328125l16.484375 0zm-13.734375 105.21875l-31.65625 -49.140625l7.453125 -12.21875l40.390625 61.359375l-16.1875 0zm42.492188 -24.140625l40.984375 -81.078125l13.296875 0l0 105.21875l-13.296875 0l0 -81.15625l-40.984375 81.15625l-13.21875 0l0 -105.21875l13.21875 0l0 81.078125zm189.70117 12.4375l-1.296875 37.0625l-11.859375 0l0 -25.359375l-8.734375 0l0 -11.703125l21.890625 0zm-77.25 11.703125l0 -105.21875l13.296875 0l0 93.875l41.109375 0l0 -93.875l13.296875 0l0 105.21875l-67.703125 0zm150.60547 -11.34375l0 11.34375l-45.671875 0l0 -11.34375l45.671875 0zm-43.296875 -93.875l0 105.21875l-13.296875 0l0 -105.21875l13.296875 0zm37.140625 45.234375l0 11.34375l-39.515625 0l0 -11.34375l39.515625 0zm5.421875 -45.234375l0 11.421875l-44.9375 0l0 -11.421875l44.9375 0zm74.80078 45.234375l0 11.34375l-45.59375 0l0 -11.34375l45.59375 0zm-43.796875 -45.234375l0 105.21875l-13.296875 0l0 -105.21875l13.296875 0zm55.578125 0l0 105.21875l-13.296875 0l0 -105.21875l13.296875 0zm54.634766 0l0 105.21875l-13.15625 0l0 -105.21875l13.15625 0zm27.671875 0l0 11.421875l-68.4375 0l0 -11.421875l68.4375 0zm7.3007812 10.984375l0 -10.984375l26.09375 0l0 10.984375l-26.09375 0zm33.53125 31.875l23.921875 0q9.75 0 16.5 3.859375q6.765625 3.859375 10.265625 10.796875q3.515625 6.9375 3.515625 16.265625q0 6.9375 -2.0 12.6875q-1.984375 5.734375 -5.859375 9.96875q-3.859375 4.234375 -9.5 6.515625q-5.625 2.265625 -12.921875 2.265625l-34.40625 0l0 -105.21875l13.296875 0l0 93.875l21.109375 0q6.0 0 9.75 -2.859375q3.765625 -2.859375 5.5 -7.484375q1.734375 -4.625 1.734375 -9.890625q0 -5.28125 -1.734375 -9.6875q-1.734375 -4.40625 -5.5 -7.046875q-3.75 -2.640625 -9.75 -2.640625l-23.921875 0l0 -11.40625zm104.708984 21.09375l-22.984375 0l0 -11.34375l22.984375 0q6.5 0 10.515625 -2.59375q4.015625 -2.609375 5.859375 -7.234375q1.84375 -4.625 1.84375 -10.546875q0 -5.421875 -1.84375 -10.1875q-1.84375 -4.78125 -5.859375 -7.703125q-4.015625 -2.921875 -10.515625 -2.921875l-20.234375 0l0 93.796875l-13.296875 0l0 -105.21875l33.53125 0q10.1875 0 17.203125 4.125q7.015625 4.109375 10.65625 11.375q3.65625 7.265625 3.65625 16.578125q0 10.125 -3.65625 17.28125q-3.640625 7.15625 -10.65625 10.875q-7.015625 3.71875 -17.203125 3.71875z" fill-rule="nonzero"/><path fill="#0b5394" d="m845.2031 435.90552l0 -13.546875q0 -6.828125 2.0625 -14.265625q2.078125 -7.453125 6.046875 -14.34375q3.984375 -6.890625 9.578125 -11.921875l11.078125 8.171875q-4.46875 7.390625 -6.828125 15.171875q-2.34375 7.78125 -2.34375 16.859375l0 13.875l-19.59375 0zm31.921875 0l0 -13.546875q0 -6.828125 2.0625 -14.265625q2.078125 -7.453125 6.046875 -14.34375q3.984375 -6.890625 9.578125 -11.921875l11.078125 8.171875q-4.46875 7.390625 -6.828125 15.171875q-2.34375 7.78125 -2.34375 16.859375l0 13.875l-19.59375 0zm131.68579 68.3125l20.59375 0q-0.78125 16.796875 -6.78125 28.953125q-5.984375 12.140625 -17.359375 18.640625q-11.359375 6.484375 -28.375 6.484375q-12.203125 0 -22.0625 -4.8125q-9.84375 -4.8125 -16.84375 -13.828125q-7.0 -9.015625 -10.703125 -21.65625q-3.6875 -12.65625 -3.6875 -28.453125l0 -30.125q0 -15.671875 3.75 -28.328125q3.75 -12.65625 10.859375 -21.65625q7.109375 -9.015625 17.359375 -13.828125q10.25 -4.828125 23.234375 -4.828125q15.90625 0 26.921875 6.328125q11.03125 6.328125 17.015625 18.484375q6.0 12.140625 6.671875 29.71875l-20.59375 0q-0.796875 -12.875 -4.046875 -20.984375q-3.234375 -8.125 -9.5625 -11.984375q-6.328125 -3.859375 -16.40625 -3.859375q-8.953125 0 -15.515625 3.578125q-6.546875 3.578125 -10.75 10.25q-4.1875 6.65625 -6.265625 16.015625q-2.078125 9.34375 -2.078125 20.875l0 30.34375q0 10.75 1.734375 20.046875q1.75 9.296875 5.609375 16.296875q3.859375 7.0 10.125 10.921875q6.28125 3.90625 15.234375 3.90625q11.3125 0 17.921875 -3.6875q6.609375 -3.703125 9.796875 -11.765625q3.1875 -8.0625 4.203125 -21.046875zm97.75488 -24.40625l-33.15625 0l-0.21875 -17.359375l30.796875 0q6.9375 0 12.3125 -3.140625q5.375 -3.140625 8.453125 -9.015625q3.078125 -5.875 3.078125 -14.046875q0 -8.953125 -2.640625 -14.609375q-2.625 -5.65625 -7.9375 -8.28125q-5.3125 -2.640625 -13.5 -2.640625l-25.96875 0l0 145.34375l-20.609375 0l0 -163.03125l46.578125 0q10.53125 0 18.8125 2.515625q8.296875 2.515625 14.0625 7.84375q5.765625 5.3125 8.78125 13.484375q3.03125 8.171875 3.03125 19.59375q0 10.078125 -4.546875 18.203125q-4.53125 8.109375 -12.59375 13.265625q-8.0625 5.15625 -18.578125 6.609375l-6.15625 5.265625zm-0.796875 76.25l-40.859375 0l11.96875 -17.578125l28.890625 0q8.0625 0 13.65625 -3.578125q5.609375 -3.59375 8.578125 -10.140625q2.96875 -6.546875 2.96875 -15.515625q0 -9.0625 -2.46875 -15.671875q-2.453125 -6.609375 -7.828125 -10.1875q-5.375 -3.578125 -14.109375 -3.578125l-26.546875 0l0.21875 -17.359375l35.84375 0l4.59375 6.265625q10.078125 1.015625 16.953125 6.671875q6.890625 5.640625 10.421875 14.375q3.53125 8.734375 3.53125 19.265625q0 15.234375 -5.65625 25.703125q-5.65625 10.46875 -15.96875 15.90625q-10.296875 5.421875 -24.1875 5.421875zm164.28357 -17.578125l0 17.578125l-70.78125 0l0 -17.578125l70.78125 0zm-67.078125 -145.45312l0 163.03125l-20.609375 0l0 -163.03125l20.609375 0zm57.546875 70.09375l0 17.578125l-61.25 0l0 -17.578125l61.25 0zm8.40625 -70.09375l0 17.6875l-69.65625 0l0 -17.6875l69.65625 0zm82.07556 0l0 163.03125l-20.375 0l0 -163.03125l20.375 0zm42.890625 0l0 17.6875l-106.046875 0l0 -17.6875l106.046875 0zm68.08325 14.4375l-44.578125 148.59375l-21.046875 0l52.515625 -163.03125l13.21875 0l-0.109375 14.4375zm36.046875 148.59375l-44.5625 -148.59375l-0.21875 -14.4375l13.328125 0l52.515625 163.03125l-21.0625 0zm0 -60.359375l0 17.703125l-78.609375 0l0 -17.703125l78.609375 0zm143.89417 -102.671875l0 163.03125l-20.375 0l0 -163.03125l20.375 0zm42.890625 0l0 17.6875l-106.046875 0l0 -17.6875l106.046875 0zm76.023315 99.09375l-35.609375 0l0 -17.578125l35.609375 0q10.078125 0 16.296875 -4.03125q6.21875 -4.03125 9.0625 -11.203125q2.859375 -7.171875 2.859375 -16.34375q0 -8.40625 -2.859375 -15.796875q-2.84375 -7.390625 -9.0625 -11.921875q-6.21875 -4.53125 -16.296875 -4.53125l-31.34375 0l0 145.34375l-20.609375 0l0 -163.03125l51.953125 0q15.796875 0 26.65625 6.390625q10.859375 6.375 16.515625 17.625q5.65625 11.25 5.65625 25.6875q0 15.6875 -5.65625 26.78125q-5.65625 11.078125 -16.515625 16.84375q-10.859375 5.765625 -26.65625 5.765625zm181.18726 -31.6875l0 28.328125q0 17.25 -3.75 30.296875q-3.75 13.03125 -10.921875 21.765625q-7.171875 8.734375 -17.25 13.109375q-10.078125 4.359375 -22.71875 4.359375q-12.21875 0 -22.296875 -4.359375q-10.078125 -4.375 -17.359375 -13.109375q-7.265625 -8.734375 -11.25 -21.765625q-3.96875 -13.046875 -3.96875 -30.296875l0 -28.328125q0 -17.25 3.921875 -30.296875q3.921875 -13.046875 11.1875 -21.78125q7.28125 -8.734375 17.359375 -13.15625q10.078125 -4.421875 22.28125 -4.421875q12.65625 0 22.78125 4.421875q10.140625 4.421875 17.25 13.15625q7.109375 8.734375 10.921875 21.78125q3.8125 13.046875 3.8125 30.296875zm-20.375 28.328125l0 -28.5625q0 -13.4375 -2.25 -23.109375q-2.234375 -9.6875 -6.609375 -15.84375q-4.359375 -6.171875 -10.75 -9.125q-6.375 -2.96875 -14.78125 -2.96875q-7.9375 0 -14.265625 2.96875q-6.328125 2.953125 -10.8125 9.125q-4.484375 6.15625 -6.890625 15.84375q-2.40625 9.671875 -2.40625 23.109375l0 28.5625q0 13.546875 2.40625 23.234375q2.40625 9.6875 6.9375 15.90625q4.546875 6.203125 10.921875 9.171875q6.390625 2.96875 14.234375 2.96875q8.390625 0 14.828125 -2.96875q6.4375 -2.96875 10.75 -9.171875q4.3125 -6.21875 6.5 -15.90625q2.1875 -9.6875 2.1875 -23.234375zm73.67139 29.890625l63.5 -125.625l20.59375 0l0 163.03125l-20.59375 0l0 -125.75l-63.5 125.75l-20.484375 0l0 -163.03125l20.484375 0l0 125.625zm241.31714 19.265625l-2.015625 57.4375l-18.375 0l0 -39.296875l-13.546875 0l0 -18.140625l33.9375 0zm-119.703125 18.140625l0 -163.03125l20.59375 0l0 145.45312l63.71875 0l0 -145.45312l20.609375 0l0 163.03125l-104.921875 0zm200.54858 -148.59375l-44.578125 148.59375l-21.046875 0l52.515625 -163.03125l13.21875 0l-0.109375 14.4375zm36.046875 148.59375l-44.5625 -148.59375l-0.21875 -14.4375l13.328125 0l52.515625 163.03125l-21.0625 0zm0 -60.359375l0 17.703125l-78.609375 0l0 -17.703125l78.609375 0z" fill-rule="nonzero"/><path fill="#0b5394" d="m2424.5664 342.06177l0 17.84375q0 8.359375 -2.578125 17.625q-2.578125 9.25 -7.453125 17.828125q-4.875 8.5625 -11.984375 14.96875l-13.796875 -10.171875q5.578125 -9.1875 8.5 -18.859375q2.921875 -9.6875 2.921875 -20.984375l0 -18.25l24.390625 0zm38.734375 0l0 17.84375q0 8.359375 -2.578125 17.625q-2.578125 9.25 -7.453125 17.828125q-4.875 8.5625 -11.984375 14.96875l-13.796875 -10.171875q5.578125 -9.1875 8.5 -18.859375q2.921875 -9.6875 2.921875 -20.984375l0 -18.25l24.390625 0z" fill-rule="nonzero"/><path fill="#000000" fill-opacity="0.0" d="m163.37294 258.81552l0 0c0 -74.27423 58.649857 -134.48538 130.9981 -134.48538l0 0c34.74286 0 68.062744 14.168953 92.62967 39.389854c24.566895 25.220917 38.36844 59.427795 38.36844 95.095535l0 0c0 74.27423 -58.64984 134.48541 -130.99811 134.48541l0 0c-72.348236 0 -130.9981 -60.21118 -130.9981 -134.48541z" fill-rule="evenodd"/><path stroke="#0b5394" stroke-width="16.0" stroke-linejoin="round" stroke-linecap="butt" d="m163.37294 258.81552l0 0c0 -74.27423 58.649857 -134.48538 130.9981 -134.48538l0 0c34.74286 0 68.062744 14.168953 92.62967 39.389854c24.566895 25.220917 38.36844 59.427795 38.36844 95.095535l0 0c0 74.27423 -58.64984 134.48541 -130.99811 134.48541l0 0c-72.348236 0 -130.9981 -60.21118 -130.9981 -134.48541z" fill-rule="evenodd"/><path fill="#000000" fill-opacity="0.0" d="m349.7657 258.81552l0 0c0 -74.27423 58.64984 -134.48538 130.99811 -134.48538l0 0c34.74286 0 68.062744 14.168953 92.62964 39.389854c24.566895 25.220917 38.36847 59.427795 38.36847 95.095535l0 0c0 74.27423 -58.64984 134.48541 -130.99811 134.48541l0 0c-72.34827 0 -130.99811 -60.21118 -130.99811 -134.48541z" fill-rule="evenodd"/><path stroke="#0b5394" stroke-width="16.0" stroke-linejoin="round" stroke-linecap="butt" d="m349.7657 258.81552l0 0c0 -74.27423 58.64984 -134.48538 130.99811 -134.48538l0 0c34.74286 0 68.062744 14.168953 92.62964 39.389854c24.566895 25.220917 38.36847 59.427795 38.36847 95.095535l0 0c0 74.27423 -58.64984 134.48541 -130.99811 134.48541l0 0c-72.34827 0 -130.99811 -60.21118 -130.99811 -134.48541z" fill-rule="evenodd"/><path fill="#000000" fill-opacity="0.0" d="m256.2882 429.207l0 0c0 -74.27423 58.64984 -134.48541 130.99811 -134.48541l0 0c34.74286 0 68.06271 14.168945 92.62964 39.389862c24.566895 25.220917 38.36847 59.427795 38.36847 95.09555l0 0c0 74.27423 -58.64987 134.48538 -130.99811 134.48538l0 0c-72.34827 0 -130.99811 -60.21115 -130.99811 -134.48538z" fill-rule="evenodd"/><path stroke="#0b5394" stroke-width="16.0" stroke-linejoin="round" stroke-linecap="butt" d="m256.2882 429.207l0 0c0 -74.27423 58.64984 -134.48541 130.99811 -134.48541l0 0c34.74286 0 68.06271 14.168945 92.62964 39.389862c24.566895 25.220917 38.36847 59.427795 38.36847 95.09555l0 0c0 74.27423 -58.64987 134.48538 -130.99811 134.48538l0 0c-72.34827 0 -130.99811 -60.21115 -130.99811 -134.48538z" fill-rule="evenodd"/></g></svg>