<svg version="1.1" viewBox="0.0 0.0 2800.0 900.0" fill="none" stroke="none" stroke-linecap="square" stroke-miterlimit="10" xmlns:xlink="http://www.w3.org/1999/xlink" xmlns="http://www.w3.org/2000/svg"><clipPath id="g89da3656bc_0_10.0"><path d="m0 0l2800.0 0l0 900.0l-2800.0 0l0 -900.0z" clip-rule="nonzero"/></clipPath><g clip-path="url(#g89da3656bc_0_10.0)"><path fill="#000000" fill-opacity="0.0" d="m0 0l2800.0 0l0 900.0l-2800.0 0z" fill-rule="evenodd"/><path fill="#000000" fill-opacity="0.0" d="m264.0 24.0l1681.4803 0l0 876.0l-1681.4803 0z" fill-rule="evenodd"/><path fill="#0b5394" d="m767.62634 156.22626l16.828125 64.4375l16.765625 -64.4375l23.5 0l0 89.09375l-18.046875 0l0 -24.109375l1.65625 -37.140625l-17.8125 61.25l-12.234375 0l-17.8125 -61.25l1.65625 37.140625l0 24.109375l-18.0 0l0 -89.09375l23.5 0zm70.86456 0l18.0 0l0 74.15625l26.375 0l0 -74.15625l18.046875 0l0 74.21875l10.953125 0l-1.21875 36.359375l-16.765625 0l0 -21.484375l-55.390625 0l0 -89.09375zm123.366394 -7.046875l7.953125 4.84375q-4.40625 8.75 -4.578125 16.765625l0 10.453125l-13.53125 0l0 -9.484375q0.0625 -5.375 2.625 -11.4375q2.828125 -6.546875 7.53125 -11.140625zm19.21875 0l7.953125 4.84375q-4.40625 8.75 -4.578125 16.765625l0 10.453125l-13.53125 0l0 -9.484375q0.0625 -5.375 2.625 -11.4375q2.828125 -6.546875 7.53125 -11.140625zm79.559204 66.453125q-0.671875 15.25 -8.578125 23.078125q-7.890625 7.828125 -22.265625 7.828125q-15.109375 0 -23.171875 -9.9375q-8.046875 -9.953125 -8.046875 -28.359375l0 -15.0q0 -18.359375 8.328125 -28.296875q8.328125 -9.953125 23.140625 -9.953125q14.5625 0 22.109375 8.140625q7.5625 8.140625 8.609375 23.375l-18.0625 0q-0.234375 -9.421875 -2.90625 -13.0q-2.65625 -3.578125 -9.75 -3.578125q-7.234375 0 -10.234375 5.046875q-2.984375 5.046875 -3.171875 16.609375l0 16.828125q0 13.28125 2.96875 18.25q2.96875 4.953125 10.1875 4.953125q7.09375 0 9.78125 -3.453125q2.703125 -3.46875 3.0625 -12.53125l18.0 0zm11.069946 29.6875l0 -89.09375l27.546875 0q13.953125 0 21.203125 6.21875q7.25 6.203125 7.25 18.1875q0 6.796875 -3.0 11.703125q-3.0 4.890625 -8.203125 7.15625q6.0 1.703125 9.234375 6.875q3.25 5.171875 3.25 12.765625q0 12.96875 -7.125 19.578125q-7.125 6.609375 -20.65625 6.609375l-29.5 0zm18.0 -38.734375l0 23.796875l11.5 0q4.828125 0 7.34375 -2.984375q2.515625 -3.0 2.515625 -8.515625q0 -12.0 -8.703125 -12.296875l-12.65625 0zm0 -13.09375l9.359375 0q10.578125 0 10.578125 -10.953125q0 -6.0625 -2.453125 -8.6875q-2.4375 -2.640625 -7.9375 -2.640625l-9.546875 0l0 22.28125zm98.3291 13.28125l-28.015625 0l0 23.609375l33.15625 0l0 14.9375l-51.15625 0l0 -89.09375l51.046875 0l0 14.984375l-33.046875 0l0 21.046875l28.015625 0l0 14.515625zm74.41284 -35.5625l-22.015625 0l0 74.109375l-18.0625 0l0 -74.109375l-21.65625 0l0 -14.984375l61.734375 0l0 14.984375zm45.53357 55.875l-24.53125 0l-4.78125 18.234375l-19.03125 0l27.84375 -89.09375l16.46875 0l28.015625 89.09375l-19.203125 0l-4.78125 -18.234375zm-20.625 -15.0l16.65625 0l-8.328125 -31.75l-8.328125 31.75zm135.85107 -40.875l-22.015625 0l0 74.109375l-18.0625 0l0 -74.109375l-21.65625 0l0 -14.984375l61.734375 0l0 14.984375zm28.346191 42.78125l0 31.328125l-18.0 0l0 -89.09375l30.359375 0q13.21875 0 21.078125 8.203125q7.859375 8.1875 7.859375 21.28125q0 13.09375 -7.765625 20.6875q-7.765625 7.59375 -21.546875 7.59375l-11.984375 0zm0 -15.0l12.359375 0q5.140625 0 7.953125 -3.359375q2.8125 -3.375 2.8125 -9.796875q0 -6.671875 -2.875 -10.609375q-2.875 -3.953125 -7.703125 -4.015625l-12.546875 0l0 27.78125zm116.02698 9.796875q0 17.921875 -8.484375 27.84375q-8.46875 9.90625 -23.53125 9.90625q-14.984375 0 -23.5625 -9.8125q-8.5625 -9.828125 -8.6875 -27.515625l0 -15.234375q0 -18.359375 8.5 -28.671875q8.515625 -10.3125 23.625 -10.3125q14.875 0 23.4375 10.140625q8.578125 10.125 8.703125 28.421875l0 15.234375zm-18.0625 -14.9375q0 -12.046875 -3.421875 -17.921875q-3.421875 -5.875 -10.65625 -5.875q-7.15625 0 -10.578125 5.65625q-3.421875 5.65625 -3.546875 17.21875l0 15.859375q0 11.6875 3.484375 17.234375q3.484375 5.53125 10.765625 5.53125q7.046875 0 10.46875 -5.40625q3.421875 -5.421875 3.484375 -16.8125l0 -15.484375zm74.6062 -37.625l17.984375 0l0 89.09375l-17.984375 0l0 -59.0l-26.25 59.0l-18.0625 0l0 -89.09375l18.0625 0l0 59.046875l26.25 -59.046875zm31.630981 0l18.0 0l0 74.15625l26.375 0l0 -74.15625l18.046875 0l0 74.21875l10.953125 0l-1.21875 36.359375l-16.765625 0l0 -21.484375l-55.390625 0l0 -89.09375zm127.95874 70.859375l-24.53125 0l-4.78125 18.234375l-19.03125 0l27.84375 -89.09375l16.46875 0l28.015625 89.09375l-19.203125 0l-4.78125 -18.234375zm-20.625 -15.0l16.65625 0l-8.328125 -31.75l-8.328125 31.75zm51.357544 -28.515625l-7.96875 -4.828125q4.34375 -8.625 4.53125 -16.765625l0 -10.65625l13.59375 0l0 9.671875q-0.0625 5.5625 -2.90625 12.03125q-2.84375 6.453125 -7.25 10.546875zm19.515625 0l-7.96875 -4.828125q4.34375 -8.625 4.53125 -16.765625l0 -10.65625l13.59375 0l0 9.671875q-0.0625 5.5625 -2.90625 12.03125q-2.84375 6.453125 -7.25 10.546875z" fill-rule="nonzero"/><path fill="#0b5394" d="m858.7227 418.62686l11.015625 -44.125l10.53125 0l-19.8125 69.140625q-2.25 7.78125 -6.34375 11.84375q-4.078125 4.0625 -9.28125 4.0625q-2.015625 0 -5.15625 -0.90625l0 -8.390625l2.1875 0.21875q4.3125 0 6.75 -2.046875q2.4375 -2.03125 3.9375 -7.078125l1.96875 -6.765625l-17.8125 -60.078125l10.8125 0l11.203125 44.125zm71.59979 -44.125l0 60.578125l-9.90625 0l0 -52.015625l-15.96875 0l-0.9375 20.546875q-0.796875 17.078125 -4.609375 24.21875q-3.796875 7.140625 -12.1875 7.25l-3.3125 0l0 -9.125l2.515625 -0.21875q4.15625 -0.5625 5.859375 -5.578125q1.703125 -5.015625 2.265625 -19.734375l0.953125 -25.921875l35.328125 0zm48.479126 0l9.859375 0l0 60.578125l-9.859375 0l0 -44.171875l-21.953125 44.171875l-9.90625 0l0 -60.578125l9.90625 0l0 44.234375l21.953125 -44.234375zm26.53241 0l9.96875 0l0 52.125l21.890564 0l0 -52.125l9.859375 0l0 52.125l6.375 0l-1.0 26.421875l-8.796875 0l0 -17.96875l-38.296814 0l0 -60.578125zm90.424255 60.578125q-0.90625 -1.953125 -1.296875 -6.609375q-5.265625 7.734375 -13.4375 7.734375q-8.21875 0 -12.84375 -4.625q-4.625 -4.625 -4.625 -13.015625q0 -9.234375 6.265625 -14.65625q6.28125 -5.4375 17.203125 -5.546875l7.28125 0l0 -6.4375q0 -5.4375 -2.421875 -7.734375q-2.40625 -2.296875 -7.328125 -2.296875q-4.484375 0 -7.28125 2.671875q-2.796875 2.65625 -2.796875 6.734375l-9.90625 0q0 -4.640625 2.734375 -8.859375q2.75 -4.234375 7.390625 -6.640625q4.65625 -2.40625 10.359375 -2.40625q9.296875 0 14.140625 4.625q4.84375 4.609375 4.953125 13.453125l0 30.5625q0.0625 7.0 1.90625 12.15625l0 0.890625l-10.296875 0zm-13.21875 -7.890625q3.640625 0 6.9375 -2.015625q3.3125 -2.015625 4.828125 -5.046875l0 -14.4375l-5.609375 0q-7.046875 0.109375 -11.140625 3.171875q-4.078125 3.046875 -4.078125 8.53125q0 5.140625 2.0625 7.46875q2.078125 2.328125 7.0 2.328125zm70.70874 -79.171875l5.59375 4.03125q-4.421875 7.28125 -4.59375 15.234375l0 7.71875l-9.796875 0l0 -6.484375q0 -5.65625 2.46875 -11.328125q2.46875 -5.6875 6.328125 -9.171875zm15.953125 0l5.59375 4.03125q-4.421875 7.28125 -4.59375 15.234375l0 7.71875l-9.796875 0l0 -6.484375q0 -5.65625 2.46875 -11.328125q2.46875 -5.6875 6.328125 -9.171875zm50.496582 27.4375q0 -6.546875 -3.71875 -10.34375q-3.71875 -3.8125 -10.328125 -3.8125q-5.59375 0 -9.328125 3.921875q-3.71875 3.90625 -3.71875 9.78125l-10.25 0q0 -10.015625 6.65625 -16.28125q6.671875 -6.28125 16.640625 -6.28125q11.59375 0 17.96875 6.171875q6.390625 6.15625 6.390625 17.015625q0 5.65625 -2.96875 10.3125q-2.96875 4.640625 -8.171875 7.3125q12.140625 4.875 12.140625 19.09375q0 11.09375 -6.96875 17.484375q-6.96875 6.375 -18.390625 6.375q-4.921875 0 -9.484375 -1.59375q-4.5625 -1.609375 -7.984375 -4.84375q-6.828125 -6.4375 -6.828125 -17.3125l10.25 0q0 6.390625 3.9375 10.703125q3.953125 4.3125 10.109375 4.3125q6.890625 0 11.0 -4.0625q4.109375 -4.0625 4.109375 -10.828125q0 -14.21875 -13.59375 -14.625l-8.40625 0l0 -8.84375l7.671875 0q6.5 0 9.875 -3.515625q3.390625 -3.53125 3.390625 -10.140625zm54.874756 59.625q-0.90625 -1.953125 -1.296875 -6.609375q-5.265625 7.734375 -13.4375 7.734375q-8.21875 0 -12.84375 -4.625q-4.625 -4.625 -4.625 -13.015625q0 -9.234375 6.265625 -14.65625q6.28125 -5.4375 17.203125 -5.546875l7.28125 0l0 -6.4375q0 -5.4375 -2.421875 -7.734375q-2.40625 -2.296875 -7.328125 -2.296875q-4.484375 0 -7.28125 2.671875q-2.796875 2.65625 -2.796875 6.734375l-9.90625 0q0 -4.640625 2.734375 -8.859375q2.75 -4.234375 7.390625 -6.640625q4.65625 -2.40625 10.359375 -2.40625q9.296875 0 14.140625 4.625q4.84375 4.609375 4.953125 13.453125l0 30.5625q0.0625 7.0 1.90625 12.15625l0 0.890625l-10.296875 0zm-13.21875 -7.890625q3.640625 0 6.9375 -2.015625q3.3125 -2.015625 4.828125 -5.046875l0 -14.4375l-5.609375 0q-7.046875 0.109375 -11.140625 3.171875q-4.078125 3.046875 -4.078125 8.53125q0 5.140625 2.0625 7.46875q2.078125 2.328125 7.0 2.328125zm69.70203 -52.6875l9.859375 0l0 60.578125l-9.859375 0l0 -44.171875l-21.953125 44.171875l-9.90625 0l0 -60.578125l9.90625 0l0 44.234375l21.953125 -44.234375zm5.8125 -22.0625q0 6.78125 -4.625 10.90625q-4.609375 4.109375 -12.109375 4.109375q-7.5 0 -12.15625 -4.140625q-4.640625 -4.15625 -4.640625 -10.875l8.453125 0q0 3.921875 2.125 6.140625q2.140625 2.203125 6.21875 2.203125q3.921875 0 6.125 -2.171875q2.21875 -2.1875 2.21875 -6.171875l8.390625 0zm59.12622 82.640625l-9.96875 0l0 -21.71875q-5.421875 1.5625 -11.140625 1.5625q-9.28125 0 -14.4375 -5.734375q-5.15625 -5.734375 -5.3125 -16.375l0 -18.359375l9.90625 0l0 18.640625q0.328125 13.3125 9.84375 13.3125q5.609375 0 11.140625 -1.671875l0 -30.234375l9.96875 0l0 60.578125zm46.86731 0q-0.90625 -1.953125 -1.296875 -6.609375q-5.265625 7.734375 -13.4375 7.734375q-8.21875 0 -12.84375 -4.625q-4.625 -4.625 -4.625 -13.015625q0 -9.234375 6.265625 -14.65625q6.28125 -5.4375 17.203125 -5.546875l7.28125 0l0 -6.4375q0 -5.4375 -2.421875 -7.734375q-2.40625 -2.296875 -7.328125 -2.296875q-4.484375 0 -7.28125 2.671875q-2.796875 2.65625 -2.796875 6.734375l-9.90625 0q0 -4.640625 2.734375 -8.859375q2.75 -4.234375 7.390625 -6.640625q4.65625 -2.40625 10.359375 -2.40625q9.296875 0 14.140625 4.625q4.84375 4.609375 4.953125 13.453125l0 30.5625q0.0625 7.0 1.90625 12.15625l0 0.890625l-10.296875 0zm-13.21875 -7.890625q3.640625 0 6.9375 -2.015625q3.3125 -2.015625 4.828125 -5.046875l0 -14.4375l-5.609375 0q-7.046875 0.109375 -11.140625 3.171875q-4.078125 3.046875 -4.078125 8.53125q0 5.140625 2.0625 7.46875q2.078125 2.328125 7.0 2.328125zm80.7334 -19.484375q0 14.390625 -5.1875 21.453125q-5.171875 7.046875 -14.640625 7.046875q-9.125 0 -14.046875 -6.890625l0 29.0625l-9.84375 0l0 -83.875l8.953125 0l0.5 6.71875q4.984375 -7.828125 14.28125 -7.828125q9.96875 0 14.890625 6.9375q4.921875 6.9375 5.09375 20.765625l0 6.609375zm-9.859375 -5.65625q0 -10.1875 -3.140625 -15.03125q-3.125 -4.84375 -10.0625 -4.84375q-7.109375 0 -10.8125 7.109375l0 31.515625q3.640625 6.953125 10.921875 6.953125q6.71875 0 9.875 -4.84375q3.171875 -4.84375 3.21875 -14.8125l0 -6.046875zm22.951904 -25.53125l-5.53125 -4.03125q4.359375 -7.328125 4.53125 -15.21875l0 -8.1875l9.796875 0l0 7.5625q-0.109375 5.375 -2.5 10.890625q-2.375 5.515625 -6.296875 8.984375zm15.5625 0l-5.53125 -4.03125q4.359375 -7.328125 4.53125 -15.21875l0 -8.1875l9.796875 0l0 7.5625q-0.109375 5.375 -2.5 10.890625q-2.375 5.515625 -6.296875 8.984375zm133.47314 35.5l-29.28125 0l0 -7.953125l29.28125 0l0 7.953125zm-31.015625 -40.03125q0 -8.734375 4.46875 -14.015625q4.484375 -5.296875 11.9375 -5.296875q7.5 0 11.96875 5.234375q4.484375 5.234375 4.484375 14.296875l0 5.265625q0 8.84375 -4.453125 14.03125q-4.4375 5.171875 -11.890625 5.171875q-7.5 0 -11.921875 -5.09375q-4.421875 -5.09375 -4.59375 -13.546875l0 -6.046875zm8.625 5.484375q0 5.484375 2.0625 8.484375q2.078125 3.0 5.828125 3.0q7.71875 0 7.71875 -12.375l0 -4.59375q0 -5.4375 -2.078125 -8.421875q-2.0625 -3.0 -5.75 -3.0q-3.640625 0 -5.71875 3.0q-2.0625 2.984375 -2.0625 8.53125l0 5.375zm-15.671875 57.609375l-10.921875 0l-26.140625 -63.484375l0 63.484375l-9.859375 0l0 -81.515625l10.859375 0l26.3125 63.65625l0 -63.65625l9.75 0l0 81.515625zm82.28381 0l-9.953125 0l0 -69.03125l-17.140625 7.671875l0 -9.40625l25.53125 -11.140625l1.5625 0l0 81.90625zm56.60034 0l-9.953125 0l0 -69.03125l-17.140625 7.671875l0 -9.40625l25.53125 -11.140625l1.5625 0l0 81.90625zm72.05347 -75.6875l-28.046875 75.6875l-10.359375 0l28.0 -73.0l-36.328125 0l0 -8.515625l46.734375 0l0 5.828125z" fill-rule="nonzero"/><path fill="#0b5394" d="m803.339 593.08l-9.953125 0l0 -69.03125l-17.140625 7.671875l0 -9.40625l25.53125 -11.140625l1.5625 0l0 81.90625zm39.75659 -45.796875l6.328125 0q6.09375 0 9.390625 -3.75q3.3125 -3.75 3.3125 -10.25q0 -14.328125 -11.078125 -14.328125q-5.328125 0 -8.359375 3.875q-3.015625 3.859375 -3.015625 10.125l-9.84375 0q0 -9.796875 5.953125 -16.15625q5.96875 -6.359375 15.265625 -6.359375q9.625 0 15.28125 6.03125q5.65625 6.015625 5.65625 17.046875q0 5.65625 -2.9375 10.5625q-2.9375 4.890625 -7.640625 7.171875q11.53125 4.265625 11.53125 19.09375q0 10.921875 -6.078125 17.390625q-6.078125 6.46875 -15.875 6.46875q-9.6875 0 -15.65625 -6.125q-5.953125 -6.140625 -5.953125 -16.5l9.90625 0q0 6.5 3.140625 10.34375q3.140625 3.828125 8.5625 3.828125q5.546875 0 8.8125 -3.75q3.28125 -3.75 3.28125 -11.421875q0 -14.84375 -14.046875 -14.84375l-5.9375 0l0 -8.453125zm87.50659 11.03125q0 18.03125 -5.265625 26.96875q-5.265625 8.921875 -16.515625 8.921875q-10.921875 0 -16.296875 -8.5625q-5.375 -8.578125 -5.59375 -25.765625l0 -13.984375q0 -17.859375 5.28125 -26.65625q5.296875 -8.796875 16.5 -8.796875q11.03125 0 16.3125 8.34375q5.296875 8.34375 5.578125 25.25l0 14.28125zm-9.90625 -14.171875q0 -12.921875 -2.859375 -19.046875q-2.859375 -6.140625 -9.125 -6.140625q-6.109375 0 -8.96875 6.015625q-2.84375 6.015625 -2.953125 18.171875l0 16.796875q0 12.875 2.953125 19.34375q2.96875 6.46875 9.078125 6.46875q6.046875 0 8.890625 -6.09375q2.859375 -6.109375 2.984375 -18.65625l0 -16.859375zm55.53778 14.109375q-5.9375 7.5625 -13.890625 7.5625q-8.90625 0 -14.171875 -7.5q-5.25 -7.5 -5.25 -19.65625q0 -12.765625 5.734375 -20.484375q5.734375 -7.734375 15.640625 -7.734375q10.3125 0 16.09375 8.9375q5.796875 8.921875 5.796875 24.71875l0 3.078125q0 13.546875 -2.046875 21.953125q-2.03125 8.390625 -6.015625 13.546875q-3.96875 5.140625 -10.125 7.8125q-6.15625 2.65625 -15.40625 2.65625l0 -8.734375l1.75 0q10.515625 -0.234375 15.96875 -6.421875q5.46875 -6.1875 5.921875 -19.734375zm-12.21875 -1.0q3.59375 0 7.0 -3.0q3.421875 -3.0 5.328125 -7.859375l0 -4.375q0 -10.125 -3.53125 -16.53125q-3.53125 -6.421875 -8.515625 -6.421875q-5.375 0 -8.546875 5.296875q-3.15625 5.28125 -3.15625 13.75q0 8.453125 3.078125 13.796875q3.09375 5.34375 8.34375 5.34375zm37.178467 52.0625l-5.875 -4.03125q5.265625 -7.328125 5.484375 -15.109375l0 -9.359375l10.140625 0l0 8.125q0 5.65625 -2.78125 11.3125q-2.765625 5.65625 -6.96875 9.0625zm101.16876 -42.09375q-0.671875 13.09375 -7.375 20.046875q-6.6875 6.9375 -18.890625 6.9375q-12.25 0 -19.484375 -9.3125q-7.21875 -9.328125 -7.21875 -25.296875l0 -14.78125q0 -15.890625 7.421875 -25.125q7.421875 -9.25 20.234375 -9.25q11.8125 0 18.28125 7.09375q6.46875 7.078125 7.03125 20.234375l-10.359375 0q-0.671875 -9.96875 -4.203125 -14.21875q-3.515625 -4.25 -10.75 -4.25q-8.34375 0 -12.828125 6.515625q-4.46875 6.515625 -4.46875 19.125l0 14.9375q0 12.375 4.171875 18.984375q4.171875 6.609375 12.171875 6.609375q8.015625 0 11.53125 -3.96875q3.53125 -3.984375 4.375 -14.28125l10.359375 0zm10.404175 -7.234375q0 -13.203125 6.40625 -20.890625q6.421875 -7.703125 16.9375 -7.703125q10.53125 0 16.9375 7.5q6.421875 7.5 6.578125 20.421875l0 6.390625q0 13.15625 -6.390625 20.828125q-6.375 7.671875 -17.0 7.671875q-10.53125 0 -16.890625 -7.4375q-6.34375 -7.453125 -6.578125 -20.171875l0 -6.609375zm9.921875 5.71875q0 9.34375 3.65625 14.703125q3.671875 5.34375 9.890625 5.34375q13.09375 0 13.484375 -18.921875l0 -6.84375q0 -9.28125 -3.703125 -14.6875q-3.6875 -5.40625 -9.890625 -5.40625q-6.109375 0 -9.78125 5.40625q-3.65625 5.40625 -3.65625 14.640625l0 5.765625zm47.9115 -1.796875q0 -15.109375 4.921875 -23.8125q4.9375 -8.703125 13.609375 -8.703125q3.59375 0 6.5 1.21875l0 -25.53125l9.90625 0l0 25.875q3.140625 -1.5625 7.328125 -1.5625q8.734375 0 13.65625 8.671875q4.9375 8.671875 4.9375 25.015625q0 13.609375 -4.9375 21.390625q-4.921875 7.78125 -13.53125 7.78125q-4.265625 0 -7.453125 -1.453125l0 23.578125l-9.90625 0l0 -23.296875q-3.078125 1.171875 -6.546875 1.171875q-8.625 0 -13.5625 -7.859375q-4.921875 -7.875 -4.921875 -22.484375zm51.0 0q0 -11.421875 -3.078125 -17.71875q-3.078125 -6.296875 -8.671875 -6.296875q-2.40625 0 -4.3125 0.84375l0 44.390625q1.734375 0.671875 4.421875 0.671875q5.546875 0 8.59375 -5.375q3.046875 -5.375 3.046875 -16.515625zm-41.09375 1.171875q0 10.3125 2.828125 15.515625q2.828125 5.203125 8.328125 5.203125q2.234375 0 3.96875 -0.609375l0 -44.625q-2.015625 -0.671875 -3.859375 -0.671875q-5.546875 0 -8.40625 6.078125q-2.859375 6.078125 -2.859375 19.109375zm96.74866 -32.578125l9.859375 0l0 60.578125l-9.859375 0l0 -44.171875l-21.953125 44.171875l-9.90625 0l0 -60.578125l9.90625 0l0 44.234375l21.953125 -44.234375zm65.21997 0l0 60.578125l-9.90625 0l0 -23.5625l-11.703125 0l-12.203125 23.5625l-10.640625 0l13.109375 -25.3125q-4.9375 -2.125 -7.515625 -6.546875q-2.5625 -4.421875 -2.5625 -10.234375q0 -8.34375 5.375 -13.40625q5.375 -5.078125 14.4375 -5.078125l21.609375 0zm-31.515625 18.59375q0 4.46875 2.40625 7.1875q2.40625 2.71875 6.5 2.71875l12.703125 0l0 -20.09375l-11.8125 0q-4.421875 0 -7.109375 2.828125q-2.6875 2.828125 -2.6875 7.359375zm47.35962 58.21875l-5.875 -4.03125q5.265625 -7.328125 5.484375 -15.109375l0 -9.359375l10.140625 0l0 8.125q0 5.65625 -2.78125 11.3125q-2.765625 5.65625 -6.96875 9.0625zm92.090576 -88.90625l-32.078125 0l0 24.40625l16.46875 0q10.96875 0.0625 17.171875 6.421875q6.21875 6.34375 6.21875 17.484375q0 11.203125 -6.296875 17.78125q-6.296875 6.578125 -17.4375 6.578125l-26.421875 0l0 -81.515625l42.375 0l0 8.84375zm-32.078125 33.265625l0 30.609375l16.359375 0q6.265625 0 9.734375 -4.296875q3.46875 -4.3125 3.46875 -11.375q0 -6.9375 -3.453125 -10.9375q-3.4375 -4.0 -9.703125 -4.0l-16.40625 0zm46.757324 -21.171875l24.515625 0l0 20.890625l12.484375 0q8.671875 0.046875 13.828125 5.3125q5.15625 5.265625 5.15625 14.34375q0 9.0625 -5.21875 14.515625q-5.203125 5.453125 -13.765625 5.515625l-22.34375 0l0 -52.0625l-14.65625 0l0 -8.515625zm24.515625 29.34375l0 22.78125l12.3125 0q4.421875 0 6.796875 -2.984375q2.390625 -3.0 2.390625 -8.21875q0 -5.03125 -2.328125 -8.25q-2.328125 -3.21875 -6.515625 -3.328125l-12.65625 0zm84.81995 -29.34375l0 60.578125l-9.90625 0l0 -52.015625l-15.96875 0l-0.9375 20.546875q-0.796875 17.078125 -4.609375 24.21875q-3.796875 7.140625 -12.1875 7.25l-3.3125 0l0 -9.125l2.515625 -0.21875q4.15625 -0.5625 5.859375 -5.578125q1.703125 -5.015625 2.265625 -19.734375l0.953125 -25.921875l35.328125 0zm49.041626 8.5625l-22.5625 0l0 52.015625l-9.96875 0l0 -60.578125l32.53125 0l0 8.5625zm40.423096 52.015625q-0.90625 -1.953125 -1.296875 -6.609375q-5.265625 7.734375 -13.4375 7.734375q-8.21875 0 -12.84375 -4.625q-4.625 -4.625 -4.625 -13.015625q0 -9.234375 6.265625 -14.65625q6.28125 -5.4375 17.203125 -5.546875l7.28125 0l0 -6.4375q0 -5.4375 -2.421875 -7.734375q-2.40625 -2.296875 -7.328125 -2.296875q-4.484375 0 -7.28125 2.671875q-2.796875 2.65625 -2.796875 6.734375l-9.90625 0q0 -4.640625 2.734375 -8.859375q2.75 -4.234375 7.390625 -6.640625q4.65625 -2.40625 10.359375 -2.40625q9.296875 0 14.140625 4.625q4.84375 4.609375 4.953125 13.453125l0 30.5625q0.0625 7.0 1.90625 12.15625l0 0.890625l-10.296875 0zm-13.21875 -7.890625q3.640625 0 6.9375 -2.015625q3.3125 -2.015625 4.828125 -5.046875l0 -14.4375l-5.609375 0q-7.046875 0.109375 -11.140625 3.171875q-4.078125 3.046875 -4.078125 8.53125q0 5.140625 2.0625 7.46875q2.078125 2.328125 7.0 2.328125zm80.7334 -19.484375q0 14.390625 -5.1875 21.453125q-5.171875 7.046875 -14.640625 7.046875q-9.125 0 -14.046875 -6.890625l0 29.0625l-9.84375 0l0 -83.875l8.953125 0l0.5 6.71875q4.984375 -7.828125 14.28125 -7.828125q9.96875 0 14.890625 6.9375q4.921875 6.9375 5.09375 20.765625l0 6.609375zm-9.859375 -5.65625q0 -10.1875 -3.140625 -15.03125q-3.125 -4.84375 -10.0625 -4.84375q-7.109375 0 -10.8125 7.109375l0 31.515625q3.640625 6.953125 10.921875 6.953125q6.71875 0 9.875 -4.84375q3.171875 -4.84375 3.21875 -14.8125l0 -6.046875zm55.372437 -27.546875l9.859375 0l0 60.578125l-9.859375 0l0 -44.171875l-21.953125 44.171875l-9.90625 0l0 -60.578125l9.90625 0l0 44.234375l21.953125 -44.234375zm65.21997 0l0 60.578125l-9.90625 0l0 -23.5625l-11.703125 0l-12.203125 23.5625l-10.640625 0l13.109375 -25.3125q-4.9375 -2.125 -7.515625 -6.546875q-2.5625 -4.421875 -2.5625 -10.234375q0 -8.34375 5.375 -13.40625q5.375 -5.078125 14.4375 -5.078125l21.609375 0zm-31.515625 18.59375q0 4.46875 2.40625 7.1875q2.40625 2.71875 6.5 2.71875l12.703125 0l0 -20.09375l-11.8125 0q-4.421875 0 -7.109375 2.828125q-2.6875 2.828125 -2.6875 7.359375z" fill-rule="nonzero"/><path fill="#0b5394" d="m872.0438 698.90814l-16.515625 0l0 52.171875l-9.859375 0l0 -52.171875l-16.296875 0l0 -8.40625l42.671875 0l0 8.40625zm27.602356 53.296875q-11.3125 0 -17.359375 -6.75q-6.046875 -6.75 -6.15625 -19.796875l0 -7.328125q0 -13.546875 5.90625 -21.234375q5.90625 -7.703125 16.484375 -7.703125q10.640625 0 15.890625 6.78125q5.265625 6.765625 5.375 21.09375l0 6.484375l-33.8125 0l0 1.40625q0 9.75 3.671875 14.171875q3.671875 4.421875 10.546875 4.421875q4.375 0 7.703125 -1.65625q3.328125 -1.65625 6.25 -5.234375l5.140625 6.265625q-6.4375 9.078125 -19.640625 9.078125zm-1.125 -54.3125q-6.15625 0 -9.125 4.234375q-2.96875 4.21875 -3.359375 13.125l23.84375 0l0 -1.34375q-0.390625 -8.625 -3.109375 -12.3125q-2.703125 -3.703125 -8.25 -3.703125zm75.86102 -7.390625l0 60.578125l-9.90625 0l0 -52.015625l-15.96875 0l-0.9375 20.546875q-0.796875 17.078125 -4.609375 24.21875q-3.796875 7.140625 -12.1875 7.25l-3.3125 0l0 -9.125l2.515625 -0.21875q4.15625 -0.5625 5.859375 -5.578125q1.703125 -5.015625 2.265625 -19.734375l0.953125 -25.921875l35.328125 0zm16.400879 55.140625q0 -2.6875 1.59375 -4.46875q1.59375 -1.796875 4.78125 -1.796875q3.203125 0 4.84375 1.796875q1.65625 1.78125 1.65625 4.46875q0 2.578125 -1.65625 4.3125q-1.640625 1.734375 -4.84375 1.734375q-3.1875 0 -4.78125 -1.734375q-1.59375 -1.734375 -1.59375 -4.3125zm29.847534 0q0 -2.6875 1.59375 -4.46875q1.59375 -1.796875 4.78125 -1.796875q3.203125 0 4.84375 1.796875q1.65625 1.78125 1.65625 4.46875q0 2.578125 -1.65625 4.3125q-1.640625 1.734375 -4.84375 1.734375q-3.1875 0 -4.78125 -1.734375q-1.59375 -1.734375 -1.59375 -4.3125zm0.046875 -49.4375q0 -2.6875 1.59375 -4.46875q1.59375 -1.796875 4.78125 -1.796875q3.203125 0 4.84375 1.796875q1.65625 1.78125 1.65625 4.46875q0 2.578125 -1.65625 4.3125q-1.640625 1.734375 -4.84375 1.734375q-3.1875 0 -4.78125 -1.734375q-1.59375 -1.734375 -1.59375 -4.3125zm78.59546 11.15625l18.421875 0l0 9.796875l-18.421875 0l0 25.75l-9.953125 0l0 -25.75l-18.59375 0l0 -9.796875l18.59375 0l0 -23.796875l9.953125 0l0 23.796875zm42.78003 -2.078125l6.328125 0q6.09375 0 9.390625 -3.75q3.3125 -3.75 3.3125 -10.25q0 -14.328125 -11.078125 -14.328125q-5.328125 0 -8.359375 3.875q-3.015625 3.859375 -3.015625 10.125l-9.84375 0q0 -9.796875 5.953125 -16.15625q5.96875 -6.359375 15.265625 -6.359375q9.625 0 15.28125 6.03125q5.65625 6.015625 5.65625 17.046875q0 5.65625 -2.9375 10.5625q-2.9375 4.890625 -7.640625 7.171875q11.53125 4.265625 11.53125 19.09375q0 10.921875 -6.078125 17.390625q-6.078125 6.46875 -15.875 6.46875q-9.6875 0 -15.65625 -6.125q-5.953125 -6.140625 -5.953125 -16.5l9.90625 0q0 6.5 3.140625 10.34375q3.140625 3.828125 8.5625 3.828125q5.546875 0 8.8125 -3.75q3.28125 -3.75 3.28125 -11.421875q0 -14.84375 -14.046875 -14.84375l-5.9375 0l0 -8.453125zm47.97534 4.921875l3.53125 -40.640625l35.4375 0l0 9.578125l-27.09375 0l-1.90625 22.21875q5.03125 -3.515625 10.859375 -3.515625q9.515625 0 14.9375 7.390625q5.4375 7.375 5.4375 19.859375q0 12.65625 -5.90625 19.890625q-5.90625 7.21875 -16.203125 7.21875q-9.1875 0 -14.953125 -5.984375q-5.765625 -6.0 -6.59375 -16.578125l9.28125 0q0.84375 7.0 4.0 10.5625q3.171875 3.546875 8.265625 3.546875q5.765625 0 9.015625 -5.015625q3.25 -5.015625 3.25 -13.515625q0 -8.015625 -3.5 -13.046875q-3.5 -5.046875 -9.4375 -5.046875q-4.921875 0 -7.890625 2.578125l-2.640625 2.640625l-7.890625 -2.140625zm85.16284 6.046875q-5.9375 7.5625 -13.890625 7.5625q-8.90625 0 -14.171875 -7.5q-5.25 -7.5 -5.25 -19.65625q0 -12.765625 5.734375 -20.484375q5.734375 -7.734375 15.640625 -7.734375q10.3125 0 16.09375 8.9375q5.796875 8.921875 5.796875 24.71875l0 3.078125q0 13.546875 -2.046875 21.953125q-2.03125 8.390625 -6.015625 13.546875q-3.96875 5.140625 -10.125 7.8125q-6.15625 2.65625 -15.40625 2.65625l0 -8.734375l1.75 0q10.515625 -0.234375 15.96875 -6.421875q5.46875 -6.1875 5.921875 -19.734375zm-12.21875 -1.0q3.59375 0 7.0 -3.0q3.421875 -3.0 5.328125 -7.859375l0 -4.375q0 -10.125 -3.53125 -16.53125q-3.53125 -6.421875 -8.515625 -6.421875q-5.375 0 -8.546875 5.296875q-3.15625 5.28125 -3.15625 13.75q0 8.453125 3.078125 13.796875q3.09375 5.34375 8.34375 5.34375zm108.06006 35.828125l-45.578125 0l0 -7.453125l23.234375 -30.78125q5.265625 -7.109375 7.3125 -11.671875q2.046875 -4.5625 2.046875 -9.65625q0 -6.5 -3.03125 -10.53125q-3.015625 -4.03125 -7.953125 -4.03125q-6.203125 0 -9.59375 4.28125q-3.390625 4.28125 -3.390625 12.34375l-9.90625 0q0 -11.25 6.15625 -18.1875q6.15625 -6.953125 16.734375 -6.953125q9.75 0 15.34375 5.96875q5.59375 5.96875 5.59375 15.875q0 12.09375 -12.59375 28.609375l-18.140625 23.734375l33.765625 0l0 8.453125zm74.79468 -27.375l9.0625 0l0 8.453125l-9.0625 0l0 18.921875l-9.90625 0l0 -18.921875l-30.796875 0l0 -6.109375l30.28125 -56.484375l10.421875 0l0 54.140625zm-29.734375 0l19.828125 0l0 -38.75l-19.828125 38.75zm94.39722 27.375l-45.578125 0l0 -7.453125l23.234375 -30.78125q5.265625 -7.109375 7.3125 -11.671875q2.046875 -4.5625 2.046875 -9.65625q0 -6.5 -3.03125 -10.53125q-3.015625 -4.03125 -7.953125 -4.03125q-6.203125 0 -9.59375 4.28125q-3.390625 4.28125 -3.390625 12.34375l-9.90625 0q0 -11.25 6.15625 -18.1875q6.15625 -6.953125 16.734375 -6.953125q9.75 0 15.34375 5.96875q5.59375 5.96875 5.59375 15.875q0 12.09375 -12.59375 28.609375l-18.140625 23.734375l33.765625 0l0 8.453125zm40.522217 0l-9.953125 0l0 -69.03125l-17.140625 7.671875l0 -9.40625l25.53125 -11.140625l1.5625 0l0 81.90625zm57.388184 -40.875l3.53125 -40.640625l35.4375 0l0 9.578125l-27.09375 0l-1.90625 22.21875q5.03125 -3.515625 10.859375 -3.515625q9.515625 0 14.9375 7.390625q5.4375 7.375 5.4375 19.859375q0 12.65625 -5.90625 19.890625q-5.90625 7.21875 -16.203125 7.21875q-9.1875 0 -14.953125 -5.984375q-5.765625 -6.0 -6.59375 -16.578125l9.28125 0q0.84375 7.0 4.0 10.5625q3.171875 3.546875 8.265625 3.546875q5.765625 0 9.015625 -5.015625q3.25 -5.015625 3.25 -13.515625q0 -8.015625 -3.5 -13.046875q-3.5 -5.046875 -9.4375 -5.046875q-4.921875 0 -7.890625 2.578125l-2.640625 2.640625l-7.890625 -2.140625zm56.60034 0l3.53125 -40.640625l35.4375 0l0 9.578125l-27.09375 0l-1.90625 22.21875q5.03125 -3.515625 10.859375 -3.515625q9.515625 0 14.9375 7.390625q5.4375 7.375 5.4375 19.859375q0 12.65625 -5.90625 19.890625q-5.90625 7.21875 -16.203125 7.21875q-9.1875 0 -14.953125 -5.984375q-5.765625 -6.0 -6.59375 -16.578125l9.28125 0q0.84375 7.0 4.0 10.5625q3.171875 3.546875 8.265625 3.546875q5.765625 0 9.015625 -5.015625q3.25 -5.015625 3.25 -13.515625q0 -8.015625 -3.5 -13.046875q-3.5 -5.046875 -9.4375 -5.046875q-4.921875 0 -7.890625 2.578125l-2.640625 2.640625l-7.890625 -2.140625zm82.85718 0l3.53125 -40.640625l35.4375 0l0 9.578125l-27.09375 0l-1.90625 22.21875q5.03125 -3.515625 10.859375 -3.515625q9.515625 0 14.9375 7.390625q5.4375 7.375 5.4375 19.859375q0 12.65625 -5.90625 19.890625q-5.90625 7.21875 -16.203125 7.21875q-9.1875 0 -14.953125 -5.984375q-5.765625 -6.0 -6.59375 -16.578125l9.28125 0q0.84375 7.0 4.0 10.5625q3.171875 3.546875 8.265625 3.546875q5.765625 0 9.015625 -5.015625q3.25 -5.015625 3.25 -13.515625q0 -8.015625 -3.5 -13.046875q-3.5 -5.046875 -9.4375 -5.046875q-4.921875 0 -7.890625 2.578125l-2.640625 2.640625l-7.890625 -2.140625zm56.60034 0l3.53125 -40.640625l35.4375 0l0 9.578125l-27.09375 0l-1.90625 22.21875q5.03125 -3.515625 10.859375 -3.515625q9.515625 0 14.9375 7.390625q5.4375 7.375 5.4375 19.859375q0 12.65625 -5.90625 19.890625q-5.90625 7.21875 -16.203125 7.21875q-9.1875 0 -14.953125 -5.984375q-5.765625 -6.0 -6.59375 -16.578125l9.28125 0q0.84375 7.0 4.0 10.5625q3.171875 3.546875 8.265625 3.546875q5.765625 0 9.015625 -5.015625q3.25 -5.015625 3.25 -13.515625q0 -8.015625 -3.5 -13.046875q-3.5 -5.046875 -9.4375 -5.046875q-4.921875 0 -7.890625 2.578125l-2.640625 2.640625l-7.890625 -2.140625z" fill-rule="nonzero"/><path fill="#000000" fill-opacity="0.0" d="m1998.5275 327.14056l0 0c0 -107.11075 86.64905 -193.94115 193.53601 -193.94115l0 0c51.3291 0 100.555664 20.43303 136.85083 56.804047c36.29492 36.371017 56.685303 85.7007 56.685303 137.1371l0 0c0 107.11072 -86.648926 193.9411 -193.53613 193.9411l0 0c-106.88696 0 -193.53601 -86.83038 -193.53601 -193.9411z" fill-rule="evenodd"/><path stroke="#0b5394" stroke-width="12.0" stroke-linejoin="round" stroke-linecap="butt" d="m1998.5275 327.14056l0 0c0 -107.11075 86.64905 -193.94115 193.53601 -193.94115l0 0c51.3291 0 100.555664 20.43303 136.85083 56.804047c36.29492 36.371017 56.685303 85.7007 56.685303 137.1371l0 0c0 107.11072 -86.648926 193.9411 -193.53613 193.9411l0 0c-106.88696 0 -193.53601 -86.83038 -193.53601 -193.9411z" fill-rule="evenodd"/><path fill="#000000" fill-opacity="0.0" d="m2273.9033 327.14056l0 0c0 -107.11075 86.64917 -193.94115 193.53613 -193.94115l0 0c51.328857 0 100.555664 20.43303 136.85059 56.804047c36.295166 36.371017 56.685303 85.7007 56.685303 137.1371l0 0c0 107.11072 -86.648926 193.9411 -193.53589 193.9411l0 0c-106.88696 0 -193.53613 -86.83038 -193.53613 -193.9411z" fill-rule="evenodd"/><path stroke="#0b5394" stroke-width="12.0" stroke-linejoin="round" stroke-linecap="butt" d="m2273.9033 327.14056l0 0c0 -107.11075 86.64917 -193.94115 193.53613 -193.94115l0 0c51.328857 0 100.555664 20.43303 136.85059 56.804047c36.295166 36.371017 56.685303 85.7007 56.685303 137.1371l0 0c0 107.11072 -86.648926 193.9411 -193.53589 193.9411l0 0c-106.88696 0 -193.53613 -86.83038 -193.53613 -193.9411z" fill-rule="evenodd"/><path fill="#000000" fill-opacity="0.0" d="m2135.8 572.86176l0 0c0 -107.11075 86.64917 -193.94113 193.53613 -193.94113l0 0c51.328857 0 100.555664 20.433014 136.85059 56.804016c36.295166 36.371033 56.685547 85.700714 56.685547 137.13712l0 0c0 107.11072 -86.64917 193.9411 -193.53613 193.9411l0 0c-106.88696 0 -193.53613 -86.83038 -193.53613 -193.9411z" fill-rule="evenodd"/><path stroke="#0b5394" stroke-width="12.0" stroke-linejoin="round" stroke-linecap="butt" d="m2135.8 572.86176l0 0c0 -107.11075 86.64917 -193.94113 193.53613 -193.94113l0 0c51.328857 0 100.555664 20.433014 136.85059 56.804016c36.295166 36.371033 56.685547 85.700714 56.685547 137.13712l0 0c0 107.11072 -86.64917 193.9411 -193.53613 193.9411l0 0c-106.88696 0 -193.53613 -86.83038 -193.53613 -193.9411z" fill-rule="evenodd"/></g></svg>