<svg xmlns="http://www.w3.org/2000/svg" width="150" height="200" xmlns:v="https://vecta.io/nano"><style><![CDATA[.B{stroke-linejoin:round}.C{stroke:rgb(4.313725%,32.54902%,58.039216%)}.D{stroke-linecap:round}.E{stroke-width:1.515}]]></style><g fill="none" class="B C D E"><path d="M92.284 54.467H38.872v91.112h72.268v-72.26"/><path d="M92.28 54.467l18.786 18.852H92.28V62.322"/><path d="M92.284 54.467H38.872v91.112h72.268v-72.26"/><path d="M92.28 54.467l18.786 18.852H92.28V62.322"/></g><path d="M60.217 80.8c1.395 0 2.457 1.055 2.457 2.457 0 1.391-1.063 2.473-2.457 2.473a2.43 2.43 0 0 1-2.465-2.473 2.41 2.41 0 0 1 2.465-2.457zm29.563 0a2.41 2.41 0 0 1 2.465 2.457c0 1.391-1.074 2.473-2.465 2.473a2.43 2.43 0 0 1-2.461-2.473c0-1.402 1.066-2.457 2.461-2.457zm0 0" fill-rule="evenodd" fill="rgb(4.313725%,32.54902%,58.039216%)" stroke="rgb(100%,100%,100%)" stroke-width=".25" class="B"/><g fill="none" class="E B"><path d="M91.651 95.585c-1.773 1.266-3.981 2.16-7.039 2.887s-6.071 1.059-9.606 1.059-6.551-.328-9.61-1.059c-3.067-.727-5.266-1.621-7.039-2.887" class="C"/><g class="D"><path d="M82.897 118.098h-32.61m49.443 7.836H50.287m49.443 7.844H50.287" stroke="rgb(69.803922%,69.803922%,69.803922%)"/><path d="M21.473 37.2c6.266 6.278 5.746 5.363 12.012 11.645m5.399-18.735v16.825m-7.086 7.43H14.375" class="C"/></g></g></svg>