<svg version="1.1" viewBox="0.0 0.0 944.8818897637796 377.9527559055118" fill="none" stroke="none" stroke-linecap="square" stroke-miterlimit="10" xmlns:xlink="http://www.w3.org/1999/xlink" xmlns="http://www.w3.org/2000/svg"><clipPath id="p.0"><path d="m0 0l944.8819 0l0 377.95276l-944.8819 0l0 -377.95276z" clip-rule="nonzero"/></clipPath><g clip-path="url(#p.0)"><path fill="#000000" fill-opacity="0.0" d="m0 0l944.8819 0l0 377.95276l-944.8819 0z" fill-rule="evenodd"/><path fill="#000000" fill-opacity="0.0" d="m6.5224133 0l931.8425 0l0 377.95276l-931.8425 0z" fill-rule="evenodd"/><path fill="#073763" d="m163.9691 126.30701l0 21.234375l-32.4375 0q-13.15625 0 -13.15625 10.046875q0 5.421875 6.375 9.796875q6.390625 4.375 18.484375 8.828125q5.828125 2.234375 10.03125 4.609375q4.21875 2.359375 8.609375 6.390625q4.40625 4.03125 6.609375 10.375q2.203125 6.328125 2.203125 14.28125q0 9.046875 -3.84375 16.28125q-3.84375 7.21875 -9.796875 11.28125q-5.9375 4.0625 -12.0625 6.109375q-6.125 2.03125 -11.96875 2.21875q-2.359375 0.15625 -6.734375 0.15625l-28.984375 0l0 -21.25l28.5 0q10.109375 0 15.96875 -3.875q5.875 -3.890625 5.875 -11.078125q0 -3.515625 -1.546875 -6.140625q-1.53125 -2.625 -4.78125 -4.796875q-3.25 -2.171875 -6.921875 -3.875q-3.671875 -1.71875 -8.890625 -3.625q-1.515625 -0.5 -2.421875 -0.859375q-27.921875 -10.671875 -27.921875 -35.3125q0 -15.453125 9.984375 -23.125q9.984375 -7.671875 25.40625 -7.671875l33.421875 0zm82.56227 0l22.234375 0l0 82.125q0 21.03125 -11.140625 31.078125q-11.125 10.046875 -32.78125 10.046875q-21.640625 0 -32.703125 -10.046875q-11.046875 -10.0625 -11.046875 -31.078125l0 -82.125l22.234375 0l0 84.25q0 9.4375 5.65625 13.59375q5.65625 4.15625 15.703125 4.15625q10.359375 0 16.09375 -4.15625q5.75 -4.171875 5.75 -13.59375l0 -84.25zm58.968872 121.609375l-22.234375 0l0 -78.84375q0 -20.734375 11.390625 -32.5625q11.390625 -11.84375 30.0625 -11.84375q19.828125 0 30.890625 11.515625q11.0625 11.5 11.0625 29.109375q0 10.953125 -4.0625 19.28125q-4.0625 8.3125 -10.921875 12.828125q-6.84375 4.5 -14.375 6.609375q-7.53125 2.09375 -15.703125 2.09375l-15.703125 0l0 -21.25l17.5 0q9.53125 0 14.875 -5.609375q5.34375 -5.625 5.34375 -14.28125q0 -8.5 -4.875 -13.78125q-4.859375 -5.28125 -14.1875 -5.28125q-8.90625 0 -13.984375 6.0625q-5.078125 6.046875 -5.078125 16.453125l0 79.5zm142.84741 0l-72.09375 0l0 -90.8125q0 -13.59375 8.78125 -21.984375q5.921875 -5.578125 13.125 -7.1875q7.203125 -1.625 17.09375 -1.625l33.09375 0l0 21.234375l-35.234375 0q-14.625 0 -14.625 11.6875l0 15.296875l37.875 0l0 21.234375l-37.875 0l0 30.90625l49.859375 0l0 21.25zm11.218262 0l0 -78.03125q0 -21.140625 10.6875 -33.171875q10.703125 -12.046875 30.28125 -12.046875q19.515625 0 30.3125 9.796875q10.8125 9.796875 10.8125 27.390625q0 11.46875 -5.59375 18.921875q-5.578125 7.453125 -18.578125 8.953125l0.0625 -0.65625q13.859375 2.734375 18.484375 12.46875q4.640625 9.734375 4.640625 30.671875l0 15.703125l-22.234375 0l0 -24.390625q0 -11.046875 -6.046875 -17.015625q-6.046875 -5.984375 -17.9375 -5.984375l-12.25 0l0 -21.25l12.75 0q14.28125 0 19.375 -5.375q5.09375 -5.375 5.09375 -12.859375q0 -6.796875 -4.90625 -10.96875q-4.90625 -4.171875 -13.5 -4.171875q-9.78125 0 -14.5 5.34375q-4.71875 5.34375 -4.71875 18.640625l0 78.03125l-22.234375 0zm152.65167 -40.28125l-0.984375 0l11.140625 -50.25q4.5625 -17.625 14.375 -24.34375q9.828125 -6.734375 32.171875 -6.734375l0 121.609375l-22.234375 0l0.34375 -96.203125q1.078125 -0.078125 -0.71875 2.578125q-1.796875 2.65625 -3.609375 8.703125l-21.203125 72.78125l-19.53125 0l-21.390625 -72.796875q-1.828125 -6.234375 -3.53125 -8.78125q-1.703125 -2.5625 -0.625 -2.46875l0.328125 96.1875l-22.21875 0l0 -121.609375q22.359375 0 32.078125 6.8125q9.71875 6.8125 14.46875 24.234375l11.140625 50.28125zm144.12207 40.28125l-72.09375 0l0 -90.8125q0 -13.59375 8.78125 -21.984375q5.921875 -5.578125 13.125 -7.1875q7.203125 -1.625 17.09375 -1.625l33.09375 0l0 21.234375l-35.234375 0q-14.625 0 -14.625 11.6875l0 15.296875l37.875 0l0 21.234375l-37.875 0l0 30.90625l49.859375 0l0 21.25zm97.73389 -60.8125q-0.171875 28.8125 -16.171875 44.8125q-16.0 16.0 -43.8125 16.0l-25.703125 0l0 -121.609375l25.703125 0q27.8125 0 43.8125 16.0q16.0 16.0 16.171875 44.796875zm-58.015625 39.5625q16.578125 0 25.453125 -10.96875q8.875 -10.96875 9.1875 -28.59375q-0.3125 -17.625 -9.1875 -28.59375q-8.875 -10.96875 -25.453125 -10.96875l-5.453125 0l0 79.125l5.453125 0z" fill-rule="nonzero"/></g></svg>