<svg version="1.1" viewBox="0.0 0.0 2800.0 900.0" fill="none" stroke="none" stroke-linecap="square" stroke-miterlimit="10" xmlns:xlink="http://www.w3.org/1999/xlink" xmlns="http://www.w3.org/2000/svg"><clipPath id="g89da3656bc_0_10.0"><path d="m0 0l2800.0 0l0 900.0l-2800.0 0l0 -900.0z" clip-rule="nonzero"/></clipPath><g clip-path="url(#g89da3656bc_0_10.0)"><path fill="#000000" fill-opacity="0.0" d="m0 0l2800.0 0l0 900.0l-2800.0 0z" fill-rule="evenodd"/><path fill="#000000" fill-opacity="0.0" d="m264.0 24.0l1681.4803 0l0 876.0l-1681.4803 0z" fill-rule="evenodd"/><path fill="#0b5394" d="m751.0989 156.22626l15.734375 0l18.171875 60.9375l18.109375 -60.9375l13.90625 0l-25.34375 89.09375l-13.40625 0l-27.171875 -89.09375zm-6.359375 0l15.0 0l2.328125 58.734375l0 30.359375l-17.328125 0l0 -89.09375zm65.421875 0l15.046875 0l0 89.09375l-17.25 0l0 -30.359375l2.203125 -58.734375zm102.06897 74.34375l-1.21875 36.234375l-16.578125 0l0 -21.484375l-5.875 0l0 -14.75l23.671875 0zm-73.125 14.75l0 -89.09375l17.8125 0l0 74.28125l26.546875 0l0 -74.28125l18.0 0l0 89.09375l-62.359375 0zm112.96149 -64.1875l0 -9.25q0 -4.03125 1.4375 -8.25q1.4375 -4.234375 3.703125 -8.015625q2.265625 -3.796875 5.015625 -6.4375l7.953125 4.84375q-1.765625 3.609375 -3.140625 7.859375q-1.375 4.25 -1.375 10.0l0 9.25l-13.59375 0zm19.21875 0l0 -9.25q0 -4.03125 1.4375 -8.25q1.4375 -4.234375 3.703125 -8.015625q2.265625 -3.796875 5.015625 -6.4375l7.953125 4.84375q-1.765625 3.609375 -3.140625 7.859375q-1.375 4.25 -1.375 10.0l0 9.25l-13.59375 0zm71.7193 34.5l17.8125 0q-0.375 10.046875 -4.046875 16.9375q-3.671875 6.875 -10.4375 10.421875q-6.75 3.546875 -16.296875 3.546875q-7.40625 0 -13.15625 -2.46875q-5.75 -2.484375 -9.796875 -7.3125q-4.03125 -4.84375 -6.09375 -11.96875q-2.046875 -7.125 -2.046875 -16.4375l0 -15.109375q0 -9.296875 2.171875 -16.453125q2.171875 -7.171875 6.234375 -12.03125q4.078125 -4.859375 9.859375 -7.34375q5.796875 -2.484375 13.078125 -2.484375q9.71875 0 16.265625 3.640625q6.546875 3.640625 10.125 10.6875q3.59375 7.03125 4.328125 17.125l-17.875 0q-0.1875 -6.359375 -1.4375 -10.0q-1.25 -3.640625 -3.953125 -5.140625q-2.6875 -1.5 -7.453125 -1.5q-3.5625 0 -6.140625 1.265625q-2.5625 1.25 -4.21875 4.0q-1.640625 2.75 -2.40625 7.21875q-0.765625 4.46875 -0.765625 10.890625l0 15.234375q0 6.3125 0.671875 10.75q0.671875 4.4375 2.140625 7.25q1.46875 2.8125 4.0 4.109375q2.546875 1.28125 6.46875 1.28125q4.53125 0 7.3125 -1.34375q2.78125 -1.359375 4.125 -4.84375q1.34375 -3.484375 1.53125 -9.921875zm59.11682 -9.171875l-18.296875 0l-0.0625 -12.96875l15.546875 0q3.671875 0 6.015625 -1.25q2.359375 -1.265625 3.484375 -3.734375q1.140625 -2.484375 1.140625 -6.03125q0 -4.109375 -1.078125 -6.578125q-1.0625 -2.484375 -3.359375 -3.640625q-2.28125 -1.171875 -6.015625 -1.171875l-9.546875 0l0 74.234375l-17.9375 0l0 -89.09375l27.484375 0q6.609375 0 11.859375 1.46875q5.265625 1.46875 8.9375 4.5q3.671875 3.015625 5.625 7.578125q1.96875 4.5625 1.96875 10.796875q0 5.515625 -2.203125 10.171875q-2.203125 4.640625 -6.921875 7.609375q-4.703125 2.96875 -12.171875 3.28125l-4.46875 4.828125zm-0.671875 38.859375l-22.703125 0l7.15625 -14.8125l15.546875 0q3.609375 0 5.75 -1.53125q2.140625 -1.53125 3.140625 -4.125q1.015625 -2.609375 1.015625 -5.96875q0 -3.796875 -0.890625 -6.609375q-0.875 -2.8125 -2.90625 -4.3125q-2.015625 -1.5 -5.4375 -1.5l-15.421875 0l0.125 -12.96875l18.71875 0l4.234375 5.140625q7.15625 -0.25 11.4375 2.71875q4.28125 2.96875 6.140625 7.71875q1.875 4.734375 1.875 10.0625q0 8.5625 -3.21875 14.40625q-3.203125 5.84375 -9.390625 8.8125q-6.171875 2.96875 -15.171875 2.96875zm91.96985 -14.8125l0 14.8125l-38.734375 0l0 -14.8125l38.734375 0zm-33.15625 -74.28125l0 89.09375l-17.9375 0l0 -89.09375l17.9375 0zm27.96875 36.09375l0 14.390625l-33.546875 0l0 -14.390625l33.546875 0zm5.078125 -36.09375l0 14.859375l-38.625 0l0 -14.859375l38.625 0zm47.302002 0l0 89.09375l-17.8125 0l0 -89.09375l17.8125 0zm22.140625 0l0 14.859375l-61.671875 0l0 -14.859375l61.671875 0zm35.31494 15.90625l-19.15625 73.1875l-18.90625 0l27.84375 -89.09375l11.8125 0l-1.59375 15.90625zm15.125 73.1875l-19.28125 -73.1875l-1.78125 -15.90625l12.0 0l28.09375 89.09375l-19.03125 0zm0.671875 -33.234375l0 14.875l-40.21875 0l0 -14.875l40.21875 0zm87.5686 -55.859375l0 89.09375l-17.8125 0l0 -89.09375l17.8125 0zm22.140625 0l0 14.859375l-61.671875 0l0 -14.859375l61.671875 0zm40.706787 57.703125l-18.234375 0l0 -14.875l18.234375 0q3.84375 0 6.234375 -1.703125q2.390625 -1.71875 3.484375 -4.75q1.109375 -3.03125 1.109375 -6.828125q0 -3.84375 -1.109375 -7.203125q-1.09375 -3.375 -3.484375 -5.421875q-2.390625 -2.0625 -6.234375 -2.0625l-12.421875 0l0 74.234375l-17.9375 0l0 -89.09375l30.359375 0q8.984375 0 15.4375 3.796875q6.46875 3.78125 9.953125 10.421875q3.484375 6.640625 3.484375 15.203125q0 8.640625 -3.484375 14.96875q-3.484375 6.328125 -9.953125 9.828125q-6.453125 3.484375 -15.4375 3.484375zm103.420166 -20.078125l0 14.875q0 9.421875 -2.296875 16.5q-2.296875 7.0625 -6.5 11.8125q-4.1875 4.734375 -10.09375 7.125q-5.890625 2.375 -13.0625 2.375q-7.15625 0 -13.0625 -2.375q-5.90625 -2.390625 -10.15625 -7.125q-4.25 -4.75 -6.578125 -11.8125q-2.328125 -7.078125 -2.328125 -16.5l0 -14.875q0 -9.671875 2.265625 -16.921875q2.265625 -7.25 6.546875 -12.109375q4.28125 -4.875 10.15625 -7.34375q5.875 -2.484375 13.03125 -2.484375q7.171875 0 13.046875 2.484375q5.875 2.46875 10.15625 7.34375q4.28125 4.859375 6.578125 12.109375q2.296875 7.25 2.296875 16.921875zm-17.8125 14.875l0 -15.0q0 -6.359375 -0.921875 -10.859375q-0.90625 -4.5 -2.75 -7.375q-1.828125 -2.875 -4.46875 -4.21875q-2.625 -1.34375 -6.125 -1.34375q-3.484375 0 -6.140625 1.34375q-2.65625 1.34375 -4.46875 4.21875q-1.8125 2.875 -2.703125 7.375q-0.875 4.5 -0.875 10.859375l0 15.0q0 6.125 0.90625 10.46875q0.921875 4.34375 2.75 7.09375q1.84375 2.75 4.5 4.078125q2.671875 1.3125 6.15625 1.3125q3.4375 0 6.09375 -1.3125q2.65625 -1.328125 4.4375 -4.078125q1.78125 -2.75 2.6875 -7.09375q0.921875 -4.34375 0.921875 -10.46875zm47.606323 3.859375l27.84375 -56.359375l17.015625 0l0 89.09375l-17.3125 0l0 -55.6875l-27.609375 55.6875l-17.3125 0l0 -89.09375l17.375 0l0 56.359375zm131.75464 17.984375l-1.21875 36.234375l-16.578125 0l0 -21.484375l-5.875 0l0 -14.75l23.671875 0zm-73.125 14.75l0 -89.09375l17.8125 0l0 74.28125l26.546875 0l0 -74.28125l18.0 0l0 89.09375l-62.359375 0zm117.55383 -73.1875l-19.15625 73.1875l-18.90625 0l27.84375 -89.09375l11.8125 0l-1.59375 15.90625zm15.125 73.1875l-19.28125 -73.1875l-1.78125 -15.90625l12.0 0l28.09375 89.09375l-19.03125 0zm0.671875 -33.234375l0 14.875l-40.21875 0l0 -14.875l40.21875 0zm35.24817 -60.765625l0 9.421875q0 3.984375 -1.375 8.234375q-1.375 4.25 -3.703125 8.046875q-2.328125 3.796875 -5.078125 6.484375l-7.90625 -4.828125q1.78125 -3.671875 3.15625 -7.921875q1.375 -4.25 1.375 -9.953125l0 -9.484375l13.53125 0zm19.453125 0l0 9.421875q0 3.984375 -1.375 8.234375q-1.375 4.25 -3.703125 8.046875q-2.328125 3.796875 -5.078125 6.484375l-7.90625 -4.828125q1.78125 -3.671875 3.15625 -7.921875q1.375 -4.25 1.375 -9.953125l0 -9.484375l13.53125 0z" fill-rule="nonzero"/><path fill="#0b5394" d="m856.02997 428.81436l13.484375 -54.3125l10.53125 0l-19.984375 69.921875q-0.734375 2.25 -1.9375 4.84375q-1.203125 2.609375 -3.046875 4.953125q-1.84375 2.359375 -4.421875 3.84375q-2.578125 1.484375 -6.046875 1.484375q-1.0625 0 -2.71875 -0.34375q-1.65625 -0.328125 -2.375 -0.5625l0 -8.390625q0.328125 0.0625 1.0625 0.140625q0.734375 0.078125 1.0625 0.078125q2.90625 0 4.953125 -0.921875q2.046875 -0.921875 3.5 -3.078125q1.453125 -2.15625 2.46875 -5.90625l3.46875 -11.75zm-8.734375 -54.3125l12.03125 47.03125l2.578125 10.921875l-7.046875 3.796875l-18.375 -61.75l10.8125 0zm73.95917 0l0 8.5625l-24.140625 0l0 -8.5625l24.140625 0zm8.84375 0l0 60.578125l-9.859375 0l0 -60.578125l9.859375 0zm-35.328125 0l9.90625 0l-1.390625 29.234375q-0.34375 6.765625 -1.109375 11.953125q-0.75 5.171875 -2.0625 8.875q-1.3125 3.6875 -3.25 6.015625q-1.921875 2.3125 -4.59375 3.40625q-2.65625 1.09375 -6.125 1.09375l-2.96875 0l0 -9.125l1.96875 -0.171875q1.953125 -0.171875 3.375 -1.109375q1.4375 -0.953125 2.359375 -2.828125q0.921875 -1.875 1.5 -4.84375q0.59375 -2.96875 0.921875 -7.046875q0.34375 -4.09375 0.515625 -9.53125l0.953125 -25.921875zm61.910095 44.171875l21.953125 -44.171875l9.90625 0l0 60.578125l-9.90625 0l0 -44.171875l-21.953125 44.171875l-9.84375 0l0 -60.578125l9.84375 0l0 44.171875zm48.548035 16.40625l0 -60.578125l9.90625 0l0 52.0625l21.890625 0l0 -52.0625l9.90625 0l0 60.578125l-41.703125 0zm48.09375 -8.515625l-1.015625 26.484375l-8.78125 0l0 -17.96875l-6.890625 0l0 -8.515625l16.6875 0zm40.81494 -1.84375l0 -32.859375q0 -3.578125 -1.09375 -5.765625q-1.09375 -2.1875 -3.25 -3.1875q-2.15625 -1.015625 -5.40625 -1.015625q-3.140625 0 -5.40625 1.296875q-2.265625 1.28125 -3.46875 3.40625q-1.203125 2.125 -1.203125 4.703125l-9.90625 0q0 -3.25 1.421875 -6.4375q1.4375 -3.1875 4.125 -5.78125q2.6875 -2.609375 6.453125 -4.140625q3.78125 -1.546875 8.484375 -1.546875q5.609375 0 9.90625 1.8125q4.3125 1.8125 6.78125 5.90625q2.46875 4.09375 2.46875 10.859375l0 29.890625q0 3.03125 0.46875 6.453125q0.484375 3.40625 1.375 5.875l0 0.890625l-10.25 0q-0.71875 -1.796875 -1.109375 -4.78125q-0.390625 -3.0 -0.390625 -5.578125zm1.5625 -26.359375l0.109375 7.265625l-6.890625 0q-3.515625 0 -6.40625 0.796875q-2.875 0.78125 -4.953125 2.265625q-2.078125 1.484375 -3.171875 3.671875q-1.078125 2.171875 -1.078125 4.96875q0 3.640625 1.0 5.796875q1.015625 2.15625 3.03125 3.109375q2.015625 0.953125 5.09375 0.953125q3.75 0 6.59375 -1.734375q2.859375 -1.734375 4.453125 -4.203125q1.59375 -2.46875 1.484375 -4.59375l2.1875 4.65625q-0.21875 2.171875 -1.421875 4.71875q-1.203125 2.546875 -3.34375 4.875q-2.125 2.328125 -5.015625 3.8125q-2.875 1.484375 -6.453125 1.484375q-5.265625 0 -9.21875 -2.015625q-3.9375 -2.015625 -6.125 -5.9375q-2.1875 -3.921875 -2.1875 -9.6875q0 -4.359375 1.515625 -8.046875q1.515625 -3.703125 4.484375 -6.421875q2.96875 -2.71875 7.46875 -4.21875q4.515625 -1.515625 10.4375 -1.515625l8.40625 0zm48.63965 -23.359375l0 -6.765625q0 -3.421875 1.03125 -7.140625q1.046875 -3.71875 3.03125 -7.15625q1.984375 -3.453125 4.78125 -5.96875l5.546875 4.078125q-2.234375 3.703125 -3.421875 7.59375q-1.171875 3.890625 -1.171875 8.421875l0 6.9375l-9.796875 0zm15.953125 0l0 -6.765625q0 -3.421875 1.03125 -7.140625q1.046875 -3.71875 3.03125 -7.15625q1.984375 -3.453125 4.78125 -5.96875l5.546875 4.078125q-2.234375 3.703125 -3.421875 7.59375q-1.171875 3.890625 -1.171875 8.421875l0 6.9375l-9.796875 0zm46.371582 20.9375l-7.953125 0l0 -6.875l7.609375 0q4.765625 0 7.671875 -1.734375q2.90625 -1.734375 4.25 -4.8125q1.34375 -3.09375 1.34375 -7.109375q0 -3.875 -1.484375 -7.09375q-1.484375 -3.21875 -4.5625 -5.140625q-3.078125 -1.9375 -8.0 -1.9375q-3.640625 0 -6.609375 1.765625q-2.96875 1.765625 -4.671875 4.875q-1.703125 3.09375 -1.703125 7.125l-10.3125 0q0 -5.203125 1.8125 -9.375q1.828125 -4.171875 5.046875 -7.109375q3.21875 -2.9375 7.4375 -4.5q4.234375 -1.578125 9.0 -1.578125q5.546875 0 10.015625 1.484375q4.484375 1.484375 7.703125 4.40625q3.21875 2.90625 4.921875 7.21875q1.71875 4.3125 1.71875 10.015625q0 4.203125 -1.6875 7.90625q-1.671875 3.6875 -4.765625 6.484375q-3.078125 2.796875 -7.328125 4.390625q-4.25 1.59375 -9.453125 1.59375zm-7.953125 -4.75l7.953125 0q5.703125 0 10.203125 1.40625q4.515625 1.390625 7.640625 4.078125q3.140625 2.6875 4.796875 6.640625q1.65625 3.9375 1.65625 9.03125q0 5.71875 -1.875 10.140625q-1.875 4.421875 -5.296875 7.5q-3.421875 3.078125 -8.0625 4.65625q-4.640625 1.5625 -10.1875 1.5625q-4.484375 0 -8.796875 -1.375q-4.296875 -1.375 -7.796875 -4.25q-3.5 -2.890625 -5.609375 -7.359375q-2.09375 -4.484375 -2.09375 -10.765625l10.296875 0q0 4.09375 1.765625 7.515625q1.765625 3.40625 4.890625 5.453125q3.140625 2.046875 7.34375 2.046875q4.8125 0 8.203125 -1.9375q3.390625 -1.9375 5.140625 -5.3125q1.765625 -3.390625 1.765625 -7.640625q0 -3.75 -0.921875 -6.515625q-0.921875 -2.78125 -2.75 -4.5625q-1.8125 -1.796875 -4.46875 -2.671875q-2.65625 -0.875 -6.1875 -0.875l-7.609375 0l0 -6.765625zm74.29663 33.53125l0 -32.859375q0 -3.578125 -1.09375 -5.765625q-1.09375 -2.1875 -3.25 -3.1875q-2.15625 -1.015625 -5.40625 -1.015625q-3.140625 0 -5.40625 1.296875q-2.265625 1.28125 -3.46875 3.40625q-1.203125 2.125 -1.203125 4.703125l-9.90625 0q0 -3.25 1.421875 -6.4375q1.4375 -3.1875 4.125 -5.78125q2.6875 -2.609375 6.453125 -4.140625q3.78125 -1.546875 8.484375 -1.546875q5.609375 0 9.90625 1.8125q4.3125 1.8125 6.78125 5.90625q2.46875 4.09375 2.46875 10.859375l0 29.890625q0 3.03125 0.46875 6.453125q0.484375 3.40625 1.375 5.875l0 0.890625l-10.25 0q-0.71875 -1.796875 -1.109375 -4.78125q-0.390625 -3.0 -0.390625 -5.578125zm1.5625 -26.359375l0.109375 7.265625l-6.890625 0q-3.515625 0 -6.40625 0.796875q-2.875 0.78125 -4.953125 2.265625q-2.078125 1.484375 -3.171875 3.671875q-1.078125 2.171875 -1.078125 4.96875q0 3.640625 1.0 5.796875q1.015625 2.15625 3.03125 3.109375q2.015625 0.953125 5.09375 0.953125q3.75 0 6.59375 -1.734375q2.859375 -1.734375 4.453125 -4.203125q1.59375 -2.46875 1.484375 -4.59375l2.1875 4.65625q-0.21875 2.171875 -1.421875 4.71875q-1.203125 2.546875 -3.34375 4.875q-2.125 2.328125 -5.015625 3.8125q-2.875 1.484375 -6.453125 1.484375q-5.265625 0 -9.21875 -2.015625q-3.9375 -2.015625 -6.125 -5.9375q-2.1875 -3.921875 -2.1875 -9.6875q0 -4.359375 1.515625 -8.046875q1.515625 -3.703125 4.484375 -6.421875q2.96875 -2.71875 7.46875 -4.21875q4.515625 -1.515625 10.4375 -1.515625l8.40625 0zm34.4209 20.3125l21.953125 -44.171875l9.90625 0l0 60.578125l-9.90625 0l0 -44.171875l-21.953125 44.171875l-9.84375 0l0 -60.578125l9.84375 0l0 44.171875zm19.328125 -66.125l8.390625 0q0 4.375 -2.015625 7.765625q-2.015625 3.375 -5.765625 5.28125q-3.75 1.90625 -8.890625 1.90625q-7.78125 0 -12.296875 -4.171875q-4.5 -4.171875 -4.5 -10.78125l8.390625 0q0 3.3125 1.90625 5.828125q1.90625 2.515625 6.5 2.515625q4.46875 0 6.375 -2.515625q1.90625 -2.515625 1.90625 -5.828125zm67.56372 21.953125l0 60.578125l-9.90625 0l0 -60.578125l9.90625 0zm-3.359375 27.828125l0 8.515625q-2.796875 1.171875 -5.484375 2.09375q-2.6875 0.921875 -5.65625 1.453125q-2.96875 0.53125 -6.609375 0.53125q-5.875 0 -10.328125 -2.484375q-4.4375 -2.5 -6.90625 -7.5625q-2.46875 -5.0625 -2.46875 -12.796875l0 -17.6875l9.90625 0l0 17.6875q0 5.046875 1.140625 8.1875q1.15625 3.125 3.359375 4.609375q2.21875 1.484375 5.296875 1.484375q3.484375 0 6.390625 -0.53125q2.90625 -0.53125 5.671875 -1.421875q2.78125 -0.90625 5.6875 -2.078125zm48.82959 22.390625l0 -32.859375q0 -3.578125 -1.09375 -5.765625q-1.09375 -2.1875 -3.25 -3.1875q-2.15625 -1.015625 -5.40625 -1.015625q-3.140625 0 -5.40625 1.296875q-2.265625 1.28125 -3.46875 3.40625q-1.203125 2.125 -1.203125 4.703125l-9.90625 0q0 -3.25 1.421875 -6.4375q1.4375 -3.1875 4.125 -5.78125q2.6875 -2.609375 6.453125 -4.140625q3.78125 -1.546875 8.484375 -1.546875q5.609375 0 9.90625 1.8125q4.3125 1.8125 6.78125 5.90625q2.46875 4.09375 2.46875 10.859375l0 29.890625q0 3.03125 0.46875 6.453125q0.484375 3.40625 1.375 5.875l0 0.890625l-10.25 0q-0.71875 -1.796875 -1.109375 -4.78125q-0.390625 -3.0 -0.390625 -5.578125zm1.5625 -26.359375l0.109375 7.265625l-6.890625 0q-3.515625 0 -6.40625 0.796875q-2.875 0.78125 -4.953125 2.265625q-2.078125 1.484375 -3.171875 3.671875q-1.078125 2.171875 -1.078125 4.96875q0 3.640625 1.0 5.796875q1.015625 2.15625 3.03125 3.109375q2.015625 0.953125 5.09375 0.953125q3.75 0 6.59375 -1.734375q2.859375 -1.734375 4.453125 -4.203125q1.59375 -2.46875 1.484375 -4.59375l2.1875 4.65625q-0.21875 2.171875 -1.421875 4.71875q-1.203125 2.546875 -3.34375 4.875q-2.125 2.328125 -5.015625 3.8125q-2.875 1.484375 -6.453125 1.484375q-5.265625 0 -9.21875 -2.015625q-3.9375 -2.015625 -6.125 -5.9375q-2.1875 -3.921875 -2.1875 -9.6875q0 -4.359375 1.515625 -8.046875q1.515625 -3.703125 4.484375 -6.421875q2.96875 -2.71875 7.46875 -4.21875q4.515625 -1.515625 10.4375 -1.515625l8.40625 0zm33.59265 -12.21875l0 72.234375l-9.90625 0l0 -83.875l9.0 0l0.90625 11.640625zm33.859375 15.90625l0 5.65625q0 7.171875 -1.3125 12.515625q-1.3125 5.34375 -3.859375 8.90625q-2.546875 3.546875 -6.25 5.3125q-3.6875 1.765625 -8.453125 1.765625q-4.75 0 -8.25 -1.8125q-3.5 -1.828125 -5.890625 -5.296875q-2.375 -3.484375 -3.75 -8.375q-1.359375 -4.90625 -1.859375 -11.0l0 -8.625q0.5 -6.4375 1.84375 -11.5625q1.34375 -5.125 3.71875 -8.734375q2.375 -3.609375 5.875 -5.5q3.5 -1.90625 8.203125 -1.90625q4.875 0 8.59375 1.6875q3.734375 1.671875 6.28125 5.171875q2.546875 3.484375 3.828125 8.890625q1.28125 5.40625 1.28125 12.90625zm-9.90625 5.65625l0 -5.65625q0 -5.03125 -0.75 -8.78125q-0.75 -3.765625 -2.375 -6.21875q-1.625 -2.46875 -4.09375 -3.703125q-2.46875 -1.234375 -5.9375 -1.234375q-2.96875 0 -5.234375 1.234375q-2.265625 1.234375 -3.890625 3.34375q-1.625 2.09375 -2.6875 4.75q-1.0625 2.65625 -1.5625 5.515625l0 16.96875q0.953125 3.578125 2.515625 6.75q1.5625 3.15625 4.21875 5.125q2.671875 1.953125 6.75 1.953125q3.421875 0 5.875 -1.234375q2.46875 -1.234375 4.0625 -3.71875q1.609375 -2.5 2.359375 -6.28125q0.75 -3.78125 0.75 -8.8125zm31.795654 -58.625l0 7.171875q0 3.359375 -1.03125 7.09375q-1.03125 3.71875 -3.0 7.15625q-1.953125 3.4375 -4.8125 6.015625l-5.53125 -4.078125q2.234375 -3.703125 3.40625 -7.59375q1.171875 -3.890625 1.171875 -8.421875l0 -7.34375l9.796875 0zm15.5625 0l0 7.171875q0 3.359375 -1.03125 7.09375q-1.03125 3.71875 -3.0 7.15625q-1.953125 3.4375 -4.8125 6.015625l-5.53125 -4.078125q2.234375 -3.703125 3.40625 -7.59375q1.171875 -3.890625 1.171875 -8.421875l0 -7.34375l9.796875 0zm124.747925 54.921875l0 7.953125l-29.34375 0l0 -7.953125l29.34375 0zm-31.015625 -26.53125l0 -5.546875q0 -5.765625 2.015625 -10.09375q2.015625 -4.34375 5.671875 -6.75q3.671875 -2.40625 8.703125 -2.40625q5.109375 0 8.796875 2.40625q3.6875 2.40625 5.671875 6.75q2.0 4.328125 2.0 10.09375l0 5.546875q0 5.765625 -2.0 10.078125q-1.984375 4.3125 -5.65625 6.71875q-3.65625 2.40625 -8.6875 2.40625q-5.09375 0 -8.796875 -2.40625q-3.6875 -2.40625 -5.703125 -6.71875q-2.015625 -4.3125 -2.015625 -10.078125zm8.609375 -5.546875l0 5.546875q0 3.421875 0.859375 6.0q0.875 2.5625 2.640625 4.0q1.765625 1.421875 4.40625 1.421875q2.5625 0 4.265625 -1.421875q1.71875 -1.4375 2.578125 -4.0q0.875 -2.578125 0.875 -6.0l0 -5.546875q0 -3.359375 -0.875 -5.921875q-0.859375 -2.578125 -2.59375 -4.03125q-1.734375 -1.46875 -4.375 -1.46875q-2.625 0 -4.359375 1.46875q-1.734375 1.453125 -2.578125 4.03125q-0.84375 2.5625 -0.84375 5.921875zm-15.671875 -18.359375l0 81.515625l-10.921875 0l-26.140625 -63.484375l0 63.484375l-9.84375 0l0 -81.515625l10.859375 0l26.25 63.65625l0 -63.65625l9.796875 0zm82.23694 -0.453125l0 81.96875l-9.90625 0l0 -69.03125l-17.125 7.609375l0 -9.34375l25.53125 -11.203125l1.5 0zm56.60034 0l0 81.96875l-9.90625 0l0 -69.03125l-17.125 7.609375l0 -9.34375l25.53125 -11.203125l1.5 0zm72.11597 0.453125l0 5.828125l-28.046875 75.6875l-10.421875 0l28.0625 -73.0l-36.34375 0l0 -8.515625l46.75 0z" fill-rule="nonzero"/><path fill="#0b5394" d="m803.0033 511.11127l0 81.96875l-9.90625 0l0 -69.03125l-17.125 7.609375l0 -9.34375l25.53125 -11.203125l1.5 0zm39.81909 36.125l6.375 0q4.25 0 7.046875 -1.8125q2.8125 -1.828125 4.171875 -4.984375q1.375 -3.171875 1.375 -7.15625q0 -4.703125 -1.234375 -7.890625q-1.21875 -3.1875 -3.65625 -4.8125q-2.4375 -1.625 -6.140625 -1.625q-3.46875 0 -6.046875 1.71875q-2.5625 1.703125 -3.96875 4.84375q-1.40625 3.125 -1.40625 7.375l-9.84375 0q0 -6.203125 2.59375 -11.296875q2.609375 -5.109375 7.390625 -8.125q4.796875 -3.03125 11.28125 -3.03125q6.21875 0 10.921875 2.609375q4.703125 2.609375 7.359375 7.734375q2.65625 5.109375 2.65625 12.734375q0 3.078125 -1.15625 6.578125q-1.140625 3.5 -3.625 6.53125q-2.484375 3.015625 -6.5 4.953125q-4.0 1.921875 -9.765625 1.921875l-7.828125 0l0 -6.265625zm0 8.5l0 -6.21875l7.828125 0q6.828125 0 11.140625 1.859375q4.3125 1.84375 6.65625 4.921875q2.359375 3.078125 3.28125 6.75q0.921875 3.65625 0.921875 7.296875q0 5.71875 -1.65625 10.140625q-1.640625 4.421875 -4.640625 7.5q-2.984375 3.078125 -6.96875 4.65625q-3.96875 1.5625 -8.671875 1.5625q-4.59375 0 -8.515625 -1.515625q-3.921875 -1.515625 -6.890625 -4.390625q-2.953125 -2.890625 -4.609375 -7.109375q-1.65625 -4.234375 -1.65625 -9.65625l9.90625 0q0 4.25 1.390625 7.4375q1.40625 3.1875 4.03125 4.953125q2.640625 1.765625 6.34375 1.765625q3.6875 0 6.375 -1.640625q2.6875 -1.65625 4.171875 -5.015625q1.484375 -3.359375 1.484375 -8.453125q0 -5.09375 -1.65625 -8.375q-1.640625 -3.28125 -4.671875 -4.875q-3.015625 -1.59375 -7.21875 -1.59375l-6.375 0zm87.44409 -9.90625l0 12.421875q0 10.03125 -1.546875 16.921875q-1.53125 6.875 -4.390625 11.078125q-2.859375 4.203125 -6.859375 6.078125q-4.0 1.875 -8.984375 1.875q-3.921875 0 -7.3125 -1.171875q-3.375 -1.1875 -6.0625 -3.78125q-2.6875 -2.609375 -4.59375 -6.796875q-1.90625 -4.203125 -2.921875 -10.1875q-1.0 -6.0 -1.0 -14.015625l0 -12.421875q0 -10.015625 1.5625 -16.796875q1.578125 -6.78125 4.453125 -10.890625q2.890625 -4.109375 6.890625 -5.90625q4.0 -1.796875 8.921875 -1.796875q3.984375 0 7.359375 1.15625q3.390625 1.140625 6.046875 3.640625q2.671875 2.484375 4.5625 6.609375q1.90625 4.109375 2.890625 10.046875q0.984375 5.9375 0.984375 13.9375zm-9.859375 14.109375l0 -15.84375q0 -5.484375 -0.5 -9.65625q-0.5 -4.171875 -1.484375 -7.140625q-0.984375 -2.96875 -2.4375 -4.8125q-1.453125 -1.84375 -3.359375 -2.703125q-1.90625 -0.875 -4.203125 -0.875q-2.84375 0 -5.0625 1.375q-2.203125 1.359375 -3.75 4.328125q-1.53125 2.96875 -2.328125 7.78125q-0.78125 4.8125 -0.78125 11.703125l0 15.84375q0 5.484375 0.53125 9.6875q0.53125 4.1875 1.515625 7.25q0.984375 3.046875 2.4375 5.015625q1.453125 1.953125 3.359375 2.875q1.90625 0.921875 4.140625 0.921875q2.96875 0 5.171875 -1.453125q2.21875 -1.453125 3.71875 -4.5625q1.515625 -3.109375 2.265625 -8.0q0.765625 -4.90625 0.765625 -11.734375zm31.85028 24.46875l0.796875 0q7.546875 0 12.140625 -2.515625q4.59375 -2.53125 6.90625 -6.78125q2.328125 -4.25 3.140625 -9.59375q0.8125 -5.359375 0.8125 -11.015625l0 -12.484375q0 -5.53125 -1.03125 -9.84375q-1.03125 -4.3125 -2.75 -7.21875q-1.703125 -2.921875 -3.859375 -4.421875q-2.15625 -1.515625 -4.390625 -1.515625q-2.859375 0 -5.046875 1.421875q-2.171875 1.421875 -3.65625 4.0q-1.484375 2.578125 -2.28125 6.046875q-0.78125 3.46875 -0.78125 7.5625q0 3.640625 0.671875 7.0625q0.671875 3.40625 2.09375 6.15625q1.4375 2.734375 3.59375 4.328125q2.15625 1.59375 5.125 1.59375q2.46875 0 4.78125 -1.359375q2.328125 -1.375 4.234375 -3.75q1.90625 -2.390625 3.125 -5.40625q1.234375 -3.03125 1.46875 -6.328125l4.640625 0q0 4.640625 -1.484375 9.15625q-1.484375 4.5 -4.203125 8.203125q-2.703125 3.6875 -6.328125 5.90625q-3.609375 2.203125 -7.90625 2.203125q-5.21875 0 -8.921875 -2.34375q-3.6875 -2.359375 -6.015625 -6.28125q-2.3125 -3.921875 -3.4375 -8.75q-1.109375 -4.84375 -1.109375 -9.828125q0 -5.828125 1.34375 -10.921875q1.34375 -5.09375 4.0 -8.984375q2.65625 -3.890625 6.6875 -6.078125q4.03125 -2.1875 9.40625 -2.1875q5.984375 0 10.1875 2.8125q4.203125 2.796875 6.765625 7.5q2.578125 4.703125 3.75 10.578125q1.1875 5.875 1.1875 12.09375l0 3.75q0 6.328125 -0.59375 12.859375q-0.578125 6.515625 -2.40625 12.453125q-1.8125 5.921875 -5.40625 10.609375q-3.578125 4.671875 -9.546875 7.390625q-5.953125 2.703125 -14.90625 2.703125l-0.734375 0l-0.0625 -8.78125zm58.397217 -3.640625l0 8.34375q0 5.09375 -2.578125 10.765625q-2.5625 5.6875 -7.21875 9.5l-5.875 -4.09375q1.796875 -2.46875 3.015625 -5.015625q1.234375 -2.546875 1.875 -5.265625q0.65625 -2.703125 0.65625 -5.734375l0 -8.5l10.125 0zm81.18695 -13.609375l10.296875 0q-0.390625 8.40625 -3.390625 14.484375q-3.0 6.0625 -8.6875 9.3125q-5.671875 3.25 -14.1875 3.25q-6.09375 0 -11.03125 -2.40625q-4.921875 -2.40625 -8.421875 -6.90625q-3.5 -4.515625 -5.34375 -10.84375q-1.84375 -6.328125 -1.84375 -14.21875l0 -15.0625q0 -7.84375 1.875 -14.171875q1.875 -6.328125 5.421875 -10.828125q3.5625 -4.5 8.6875 -6.90625q5.125 -2.421875 11.609375 -2.421875q7.953125 0 13.46875 3.171875q5.515625 3.15625 8.5 9.234375q3.0 6.078125 3.34375 14.859375l-10.296875 0q-0.40625 -6.4375 -2.03125 -10.484375q-1.609375 -4.0625 -4.78125 -5.984375q-3.15625 -1.9375 -8.203125 -1.9375q-4.46875 0 -7.75 1.796875q-3.28125 1.78125 -5.375 5.109375q-2.09375 3.328125 -3.140625 8.015625q-1.03125 4.671875 -1.03125 10.4375l0 15.171875q0 5.375 0.859375 10.015625q0.875 4.640625 2.796875 8.140625q1.9375 3.5 5.078125 5.46875q3.140625 1.953125 7.609375 1.953125q5.65625 0 8.953125 -1.84375q3.3125 -1.84375 4.90625 -5.875q1.59375 -4.03125 2.109375 -10.53125zm20.763672 -1.453125l0 -5.765625q0 -7.0625 1.78125 -12.40625q1.796875 -5.34375 4.984375 -8.921875q3.203125 -3.59375 7.453125 -5.40625q4.25 -1.8125 9.125 -1.8125q4.984375 0 9.234375 1.8125q4.265625 1.8125 7.484375 5.40625q3.21875 3.578125 5.0 8.921875q1.796875 5.34375 1.796875 12.40625l0 5.765625q0 7.046875 -1.796875 12.40625q-1.78125 5.34375 -4.984375 8.921875q-3.1875 3.578125 -7.4375 5.375q-4.25 1.796875 -9.1875 1.796875q-4.921875 0 -9.1875 -1.796875q-4.25 -1.796875 -7.46875 -5.375q-3.21875 -3.578125 -5.015625 -8.921875q-1.78125 -5.359375 -1.78125 -12.40625zm9.90625 -5.765625l0 5.765625q0 4.984375 1.0 8.734375q1.015625 3.75 2.859375 6.265625q1.859375 2.515625 4.3125 3.78125q2.46875 1.265625 5.375 1.265625q3.359375 0 5.90625 -1.265625q2.546875 -1.265625 4.21875 -3.78125q1.6875 -2.515625 2.53125 -6.265625q0.84375 -3.75 0.84375 -8.734375l0 -5.765625q0 -4.984375 -1.015625 -8.703125q-1.0 -3.734375 -2.859375 -6.28125q-1.84375 -2.546875 -4.34375 -3.796875q-2.484375 -1.265625 -5.390625 -1.265625q-2.859375 0 -5.328125 1.265625q-2.453125 1.25 -4.28125 3.796875q-1.8125 2.546875 -2.828125 6.28125q-1.0 3.71875 -1.0 8.703125zm108.72388 3.921875l0 1.171875q0 6.375 -1.171875 11.734375q-1.171875 5.34375 -3.5 9.265625q-2.328125 3.90625 -5.78125 6.0625q-3.4375 2.15625 -7.96875 2.15625q-3.921875 0 -6.890625 -1.203125q-2.953125 -1.203125 -5.03125 -3.5q-2.078125 -2.296875 -3.25 -5.515625q-1.171875 -3.21875 -1.625 -7.25l0 -26.859375q0.453125 -4.3125 1.625 -7.734375q1.171875 -3.421875 3.21875 -5.828125q2.046875 -2.40625 4.984375 -3.6875q2.9375 -1.28125 6.859375 -1.28125q3.703125 0 6.65625 1.546875q2.96875 1.53125 5.171875 4.390625q2.21875 2.84375 3.703125 6.84375q1.484375 4.0 2.234375 8.984375q0.765625 4.984375 0.765625 10.703125zm-9.859375 1.171875l0 -1.171875q0 -3.921875 -0.421875 -7.46875q-0.40625 -3.5625 -1.28125 -6.5625q-0.859375 -3.0 -2.234375 -5.234375q-1.375 -2.234375 -3.3125 -3.46875q-1.921875 -1.234375 -4.5 -1.234375q-2.625 0 -4.453125 0.84375q-1.8125 0.84375 -2.875 2.21875q-1.0625 1.359375 -1.578125 2.875l0 35.09375q0.625 1.234375 1.6875 2.328125q1.0625 1.09375 2.828125 1.796875q1.765625 0.703125 4.5 0.703125q3.140625 0 5.34375 -1.59375q2.21875 -1.609375 3.609375 -4.453125q1.40625 -2.859375 2.046875 -6.609375q0.640625 -3.75 0.640625 -8.0625zm-50.9375 0l0 -1.171875q0 -5.71875 0.75 -10.703125q0.765625 -4.984375 2.25 -8.984375q1.484375 -4.0 3.71875 -6.84375q2.234375 -2.859375 5.171875 -4.390625q2.9375 -1.546875 6.640625 -1.546875q3.8125 0 6.65625 1.28125q2.859375 1.28125 4.84375 3.6875q1.984375 2.40625 3.15625 5.828125q1.1875 3.421875 1.578125 7.734375l0 25.796875q-0.453125 4.265625 -1.609375 7.6875q-1.140625 3.40625 -3.125 5.84375q-1.984375 2.421875 -4.84375 3.71875q-2.84375 1.28125 -6.71875 1.28125q-4.53125 0 -7.984375 -2.15625q-3.4375 -2.15625 -5.796875 -6.0625q-2.34375 -3.921875 -3.515625 -9.265625q-1.171875 -5.359375 -1.171875 -11.734375zm9.90625 -1.171875l0 1.171875q0 4.3125 0.5625 8.0625q0.5625 3.75 1.84375 6.609375q1.296875 2.84375 3.421875 4.453125q2.125 1.59375 5.265625 1.59375q2.796875 0 4.578125 -0.84375q1.796875 -0.84375 2.828125 -2.1875q1.046875 -1.34375 1.65625 -2.796875l0 -34.09375q-0.5 -1.515625 -1.5625 -2.875q-1.0625 -1.375 -2.890625 -2.21875q-1.8125 -0.84375 -4.5 -0.84375q-3.203125 0 -5.359375 1.90625q-2.140625 1.90625 -3.4375 5.21875q-1.28125 3.296875 -1.84375 7.640625q-0.5625 4.328125 -0.5625 9.203125zm15.109375 52.515625l0 -109.296875l9.859375 0l0 109.296875l-9.859375 0zm59.623657 -39.703125l21.953125 -44.171875l9.90625 0l0 60.578125l-9.90625 0l0 -44.171875l-21.953125 44.171875l-9.84375 0l0 -60.578125l9.84375 0l0 44.171875zm57.673096 -12.484375l10.640625 0l-14.953125 28.890625l-10.640625 0l14.953125 -28.890625zm7.78125 -31.6875l21.71875 0l0 60.578125l-9.84375 0l0 -52.171875l-11.875 0q-3.421875 0 -5.609375 1.484375q-2.171875 1.484375 -3.1875 3.84375q-1.0 2.34375 -1.0 4.859375q0 2.453125 0.921875 4.734375q0.921875 2.265625 2.90625 3.71875q2.0 1.453125 5.125 1.453125l15.171875 0l0 8.515625l-15.171875 0q-4.46875 0 -7.96875 -1.40625q-3.5 -1.40625 -5.9375 -3.890625q-2.4375 -2.484375 -3.703125 -5.875q-1.25 -3.390625 -1.25 -7.359375q0 -3.984375 1.3125 -7.34375q1.3125 -3.359375 3.859375 -5.875q2.546875 -2.515625 6.1875 -3.890625q3.640625 -1.375 8.34375 -1.375zm47.359497 48.265625l0 8.34375q0 5.09375 -2.578125 10.765625q-2.5625 5.6875 -7.21875 9.5l-5.875 -4.09375q1.796875 -2.46875 3.015625 -5.015625q1.234375 -2.546875 1.875 -5.265625q0.65625 -2.703125 0.65625 -5.734375l0 -8.5l10.125 0zm82.40576 -69.203125l0 8.84375l-32.015625 0l0 72.671875l-10.296875 0l0 -81.515625l42.3125 0zm-34.203125 33.203125l18.53125 0q7.5625 0 12.796875 3.0q5.234375 2.984375 7.9375 8.359375q2.71875 5.375 2.71875 12.59375q0 5.375 -1.546875 9.828125q-1.53125 4.453125 -4.53125 7.734375q-2.984375 3.265625 -7.359375 5.03125q-4.359375 1.765625 -10.015625 1.765625l-26.640625 0l0 -81.515625l10.296875 0l0 72.71875l16.34375 0q4.703125 0 7.578125 -2.203125q2.890625 -2.21875 4.234375 -5.796875q1.34375 -3.578125 1.34375 -7.671875q0 -4.078125 -1.34375 -7.484375q-1.34375 -3.421875 -4.234375 -5.46875q-2.875 -2.046875 -7.578125 -2.046875l-18.53125 0l0 -8.84375zm71.83545 -12.265625l0 8.515625l-22.953125 0l0 -8.515625l22.953125 0zm-0.90625 20.828125l14.78125 0q6.28125 0 10.53125 2.546875q4.25 2.546875 6.453125 7.0q2.21875 4.453125 2.21875 10.109375q0 4.1875 -1.234375 7.859375q-1.21875 3.671875 -3.65625 6.421875q-2.4375 2.734375 -6.03125 4.28125q-3.578125 1.53125 -8.28125 1.53125l-22.171875 0l0 -60.578125l9.921875 0l0 52.0625l12.25 0q3.46875 0 5.484375 -1.609375q2.015625 -1.625 2.875 -4.203125q0.875 -2.578125 0.875 -5.375q0 -2.75 -0.875 -5.375q-0.859375 -2.640625 -2.875 -4.390625q-2.015625 -1.765625 -5.484375 -1.765625l-14.78125 0l0 -8.515625zm78.44495 -20.828125l0 8.5625l-24.140625 0l0 -8.5625l24.140625 0zm8.84375 0l0 60.578125l-9.859375 0l0 -60.578125l9.859375 0zm-35.328125 0l9.90625 0l-1.390625 29.234375q-0.34375 6.765625 -1.109375 11.953125q-0.75 5.171875 -2.0625 8.875q-1.3125 3.6875 -3.25 6.015625q-1.921875 2.3125 -4.59375 3.40625q-2.65625 1.09375 -6.125 1.09375l-2.96875 0l0 -9.125l1.96875 -0.171875q1.953125 -0.171875 3.375 -1.109375q1.4375 -0.953125 2.359375 -2.828125q0.921875 -1.875 1.5 -4.84375q0.59375 -2.96875 0.921875 -7.046875q0.34375 -4.09375 0.515625 -9.53125l0.953125 -25.921875zm84.472534 0l0 8.5625l-22.609375 0l0 52.015625l-9.90625 0l0 -60.578125l32.515625 0zm38.979248 50.21875l0 -32.859375q0 -3.578125 -1.09375 -5.765625q-1.09375 -2.1875 -3.25 -3.1875q-2.15625 -1.015625 -5.40625 -1.015625q-3.140625 0 -5.40625 1.296875q-2.265625 1.28125 -3.46875 3.40625q-1.203125 2.125 -1.203125 4.703125l-9.90625 0q0 -3.25 1.421875 -6.4375q1.4375 -3.1875 4.125 -5.78125q2.6875 -2.609375 6.453125 -4.140625q3.78125 -1.546875 8.484375 -1.546875q5.609375 0 9.90625 1.8125q4.3125 1.8125 6.78125 5.90625q2.46875 4.09375 2.46875 10.859375l0 29.890625q0 3.03125 0.46875 6.453125q0.484375 3.40625 1.375 5.875l0 0.890625l-10.25 0q-0.71875 -1.796875 -1.109375 -4.78125q-0.390625 -3.0 -0.390625 -5.578125zm1.5625 -26.359375l0.109375 7.265625l-6.890625 0q-3.515625 0 -6.40625 0.796875q-2.875 0.78125 -4.953125 2.265625q-2.078125 1.484375 -3.171875 3.671875q-1.078125 2.171875 -1.078125 4.96875q0 3.640625 1.0 5.796875q1.015625 2.15625 3.03125 3.109375q2.015625 0.953125 5.09375 0.953125q3.75 0 6.59375 -1.734375q2.859375 -1.734375 4.453125 -4.203125q1.59375 -2.46875 1.484375 -4.59375l2.1875 4.65625q-0.21875 2.171875 -1.421875 4.71875q-1.203125 2.546875 -3.34375 4.875q-2.125 2.328125 -5.015625 3.8125q-2.875 1.484375 -6.453125 1.484375q-5.265625 0 -9.21875 -2.015625q-3.9375 -2.015625 -6.125 -5.9375q-2.1875 -3.921875 -2.1875 -9.6875q0 -4.359375 1.515625 -8.046875q1.515625 -3.703125 4.484375 -6.421875q2.96875 -2.71875 7.46875 -4.21875q4.515625 -1.515625 10.4375 -1.515625l8.40625 0zm33.59253 -12.21875l0 72.234375l-9.90625 0l0 -83.875l9.0 0l0.90625 11.640625zm33.859375 15.90625l0 5.65625q0 7.171875 -1.3125 12.515625q-1.3125 5.34375 -3.859375 8.90625q-2.546875 3.546875 -6.25 5.3125q-3.6875 1.765625 -8.453125 1.765625q-4.75 0 -8.25 -1.8125q-3.5 -1.828125 -5.890625 -5.296875q-2.375 -3.484375 -3.75 -8.375q-1.359375 -4.90625 -1.859375 -11.0l0 -8.625q0.5 -6.4375 1.84375 -11.5625q1.34375 -5.125 3.71875 -8.734375q2.375 -3.609375 5.875 -5.5q3.5 -1.90625 8.203125 -1.90625q4.875 0 8.59375 1.6875q3.734375 1.671875 6.28125 5.171875q2.546875 3.484375 3.828125 8.890625q1.28125 5.40625 1.28125 12.90625zm-9.90625 5.65625l0 -5.65625q0 -5.03125 -0.75 -8.78125q-0.75 -3.765625 -2.375 -6.21875q-1.625 -2.46875 -4.09375 -3.703125q-2.46875 -1.234375 -5.9375 -1.234375q-2.96875 0 -5.234375 1.234375q-2.265625 1.234375 -3.890625 3.34375q-1.625 2.09375 -2.6875 4.75q-1.0625 2.65625 -1.5625 5.515625l0 16.96875q0.953125 3.578125 2.515625 6.75q1.5625 3.15625 4.21875 5.125q2.671875 1.953125 6.75 1.953125q3.421875 0 5.875 -1.234375q2.46875 -1.234375 4.0625 -3.71875q1.609375 -2.5 2.359375 -6.28125q0.75 -3.78125 0.75 -8.8125zm33.419434 10.96875l21.953125 -44.171875l9.90625 0l0 60.578125l-9.90625 0l0 -44.171875l-21.953125 44.171875l-9.84375 0l0 -60.578125l9.84375 0l0 44.171875zm57.673096 -12.484375l10.640625 0l-14.953125 28.890625l-10.640625 0l14.953125 -28.890625zm7.78125 -31.6875l21.71875 0l0 60.578125l-9.84375 0l0 -52.171875l-11.875 0q-3.421875 0 -5.609375 1.484375q-2.171875 1.484375 -3.1875 3.84375q-1.0 2.34375 -1.0 4.859375q0 2.453125 0.921875 4.734375q0.921875 2.265625 2.90625 3.71875q2.0 1.453125 5.125 1.453125l15.171875 0l0 8.515625l-15.171875 0q-4.46875 0 -7.96875 -1.40625q-3.5 -1.40625 -5.9375 -3.890625q-2.4375 -2.484375 -3.703125 -5.875q-1.25 -3.390625 -1.25 -7.359375q0 -3.984375 1.3125 -7.34375q1.3125 -3.359375 3.859375 -5.875q2.546875 -2.515625 6.1875 -3.890625q3.640625 -1.375 8.34375 -1.375z" fill-rule="nonzero"/><path fill="#0b5394" d="m855.015 690.5019l0 60.578125l-9.90625 0l0 -60.578125l9.90625 0zm16.515625 0l0 8.40625l-42.71875 0l0 -8.40625l42.71875 0zm27.658325 61.703125q-5.421875 0 -9.796875 -1.625q-4.359375 -1.625 -7.4375 -4.953125q-3.078125 -3.34375 -4.703125 -8.4375q-1.625 -5.09375 -1.625 -12.03125l0 -6.828125q0 -8.0 1.875 -13.546875q1.875 -5.546875 5.0625 -8.921875q3.1875 -3.390625 7.21875 -4.921875q4.03125 -1.546875 8.296875 -1.546875q5.703125 0 9.734375 1.84375q4.03125 1.84375 6.546875 5.484375q2.515625 3.640625 3.71875 8.96875q1.203125 5.3125 1.203125 12.25l0 5.765625l-37.84375 0l0 -8.453125l27.9375 0l0 -1.40625q-0.21875 -4.703125 -1.265625 -8.28125q-1.03125 -3.578125 -3.390625 -5.625q-2.34375 -2.046875 -6.640625 -2.046875q-2.75 0 -5.078125 0.921875q-2.3125 0.921875 -3.96875 3.203125q-1.65625 2.265625 -2.578125 6.234375q-0.921875 3.96875 -0.921875 10.078125l0 6.828125q0 4.875 0.921875 8.375q0.921875 3.5 2.734375 5.765625q1.828125 2.265625 4.484375 3.359375q2.65625 1.09375 6.078125 1.09375q4.984375 0 8.234375 -1.9375q3.25 -1.9375 5.65625 -4.953125l5.203125 6.21875q-1.625 2.296875 -4.234375 4.390625q-2.59375 2.09375 -6.375 3.421875q-3.78125 1.3125 -9.046875 1.3125zm65.90137 -61.703125l0 8.5625l-24.140625 0l0 -8.5625l24.140625 0zm8.84375 0l0 60.578125l-9.859375 0l0 -60.578125l9.859375 0zm-35.328125 0l9.90625 0l-1.390625 29.234375q-0.34375 6.765625 -1.109375 11.953125q-0.75 5.171875 -2.0625 8.875q-1.3125 3.6875 -3.25 6.015625q-1.921875 2.3125 -4.59375 3.40625q-2.65625 1.09375 -6.125 1.09375l-2.96875 0l0 -9.125l1.96875 -0.171875q1.953125 -0.171875 3.375 -1.109375q1.4375 -0.953125 2.359375 -2.828125q0.921875 -1.875 1.5 -4.84375q0.59375 -2.96875 0.921875 -7.046875q0.34375 -4.09375 0.515625 -9.53125l0.953125 -25.921875zm51.785034 55.09375q0 -2.640625 1.640625 -4.453125q1.65625 -1.8125 4.796875 -1.8125q3.140625 0 4.78125 1.8125q1.65625 1.8125 1.65625 4.453125q0 2.578125 -1.65625 4.375q-1.640625 1.78125 -4.78125 1.78125q-3.140625 0 -4.796875 -1.78125q-1.640625 -1.796875 -1.640625 -4.375zm29.903503 0q0 -2.640625 1.640625 -4.453125q1.65625 -1.8125 4.796814 -1.8125q3.140625 0 4.78125 1.8125q1.65625 1.8125 1.65625 4.453125q0 2.578125 -1.65625 4.375q-1.640625 1.78125 -4.78125 1.78125q-3.140564 0 -4.796814 -1.78125q-1.640625 -1.796875 -1.640625 -4.375zm-0.0625 -49.4375q0 -2.640625 1.640625 -4.453125q1.65625 -1.8125 4.796814 -1.8125q3.140625 0 4.78125 1.8125q1.65625 1.8125 1.65625 4.453125q0 2.578125 -1.65625 4.375q-1.640625 1.78125 -4.78125 1.78125q-3.140564 0 -4.796814 -1.78125q-1.640625 -1.796875 -1.640625 -4.375zm97.18268 11.203125l0 9.734375l-46.90625 0l0 -9.734375l46.90625 0zm-18.421875 -23.796875l0 59.34375l-9.90625 0l0 -59.34375l9.90625 0zm42.89856 21.671875l6.375 0q4.25 0 7.046875 -1.8125q2.8125 -1.828125 4.171875 -4.984375q1.375 -3.171875 1.375 -7.15625q0 -4.703125 -1.234375 -7.890625q-1.21875 -3.1875 -3.65625 -4.8125q-2.4375 -1.625 -6.140625 -1.625q-3.46875 0 -6.046875 1.71875q-2.5625 1.703125 -3.96875 4.84375q-1.40625 3.125 -1.40625 7.375l-9.84375 0q0 -6.203125 2.59375 -11.296875q2.609375 -5.109375 7.390625 -8.125q4.796875 -3.03125 11.28125 -3.03125q6.21875 0 10.921875 2.609375q4.703125 2.609375 7.359375 7.734375q2.65625 5.109375 2.65625 12.734375q0 3.078125 -1.15625 6.578125q-1.140625 3.5 -3.625 6.53125q-2.484375 3.015625 -6.5 4.953125q-4.0 1.921875 -9.765625 1.921875l-7.828125 0l0 -6.265625zm0 8.5l0 -6.21875l7.828125 0q6.828125 0 11.140625 1.859375q4.3125 1.84375 6.65625 4.921875q2.359375 3.078125 3.28125 6.75q0.921875 3.65625 0.921875 7.296875q0 5.71875 -1.65625 10.140625q-1.640625 4.421875 -4.640625 7.5q-2.984375 3.078125 -6.96875 4.65625q-3.96875 1.5625 -8.671875 1.5625q-4.59375 0 -8.515625 -1.515625q-3.921875 -1.515625 -6.890625 -4.390625q-2.953125 -2.890625 -4.609375 -7.109375q-1.65625 -4.234375 -1.65625 -9.65625l9.90625 0q0 4.25 1.390625 7.4375q1.40625 3.1875 4.03125 4.953125q2.640625 1.765625 6.34375 1.765625q3.6875 0 6.375 -1.640625q2.6875 -1.65625 4.171875 -5.015625q1.484375 -3.359375 1.484375 -8.453125q0 -5.09375 -1.65625 -8.375q-1.640625 -3.28125 -4.671875 -4.875q-3.015625 -1.59375 -7.21875 -1.59375l-6.375 0zm55.865967 -1.453125l-7.890625 -2.125l3.46875 -40.59375l35.5 0l0 9.578125l-27.15625 0l-1.90625 22.171875q1.90625 -1.296875 4.59375 -2.40625q2.6875 -1.125 6.265625 -1.125q4.8125 0 8.59375 1.9375q3.78125 1.921875 6.40625 5.515625q2.640625 3.578125 4.03125 8.625q1.40625 5.03125 1.40625 11.234375q0 5.890625 -1.375 10.8125q-1.375 4.921875 -4.140625 8.59375q-2.765625 3.671875 -6.9375 5.6875q-4.171875 2.015625 -9.71875 2.015625q-4.140625 0 -7.84375 -1.375q-3.6875 -1.375 -6.625 -4.203125q-2.9375 -2.828125 -4.796875 -7.046875q-1.84375 -4.234375 -2.28125 -9.9375l9.34375 0q0.5625 4.59375 2.15625 7.734375q1.59375 3.125 4.140625 4.71875q2.546875 1.59375 5.90625 1.59375q2.859375 0 5.15625 -1.28125q2.296875 -1.296875 3.859375 -3.703125q1.5625 -2.40625 2.40625 -5.8125q0.84375 -3.421875 0.84375 -7.671875q0 -3.875 -0.84375 -7.171875q-0.84375 -3.296875 -2.53125 -5.765625q-1.671875 -2.46875 -4.046875 -3.828125q-2.375 -1.375 -5.515625 -1.375q-4.203125 0 -6.1875 1.40625q-1.984375 1.390625 -4.28125 3.796875zm53.56909 30.125l0.796875 0q7.546875 0 12.140625 -2.515625q4.59375 -2.53125 6.90625 -6.78125q2.328125 -4.25 3.140625 -9.59375q0.8125 -5.359375 0.8125 -11.015625l0 -12.484375q0 -5.53125 -1.03125 -9.84375q-1.03125 -4.3125 -2.75 -7.21875q-1.703125 -2.921875 -3.859375 -4.421875q-2.15625 -1.515625 -4.390625 -1.515625q-2.859375 0 -5.046875 1.421875q-2.171875 1.421875 -3.65625 4.0q-1.484375 2.578125 -2.28125 6.046875q-0.78125 3.46875 -0.78125 7.5625q0 3.640625 0.671875 7.0625q0.671875 3.40625 2.09375 6.15625q1.4375 2.734375 3.59375 4.328125q2.15625 1.59375 5.125 1.59375q2.46875 0 4.78125 -1.359375q2.328125 -1.375 4.234375 -3.75q1.90625 -2.390625 3.125 -5.40625q1.234375 -3.03125 1.46875 -6.328125l4.640625 0q0 4.640625 -1.484375 9.15625q-1.484375 4.5 -4.203125 8.203125q-2.703125 3.6875 -6.328125 5.90625q-3.609375 2.203125 -7.90625 2.203125q-5.21875 0 -8.921875 -2.34375q-3.6875 -2.359375 -6.015625 -6.28125q-2.3125 -3.921875 -3.4375 -8.75q-1.109375 -4.84375 -1.109375 -9.828125q0 -5.828125 1.34375 -10.921875q1.34375 -5.09375 4.0 -8.984375q2.65625 -3.890625 6.6875 -6.078125q4.03125 -2.1875 9.40625 -2.1875q5.984375 0 10.1875 2.8125q4.203125 2.796875 6.765625 7.5q2.578125 4.703125 3.75 10.578125q1.1875 5.875 1.1875 12.09375l0 3.75q0 6.328125 -0.59375 12.859375q-0.578125 6.515625 -2.40625 12.453125q-1.8125 5.921875 -5.40625 10.609375q-3.578125 4.671875 -9.546875 7.390625q-5.953125 2.703125 -14.90625 2.703125l-0.734375 0l-0.0625 -8.78125zm119.537964 0.15625l0 8.515625l-45.578125 0l0 -7.453125l22.453125 -29.71875q4.140625 -5.484375 6.328125 -9.3125q2.1875 -3.84375 3.015625 -6.890625q0.84375 -3.0625 0.84375 -6.25q0 -4.03125 -1.296875 -7.296875q-1.28125 -3.28125 -3.75 -5.234375q-2.453125 -1.96875 -5.921875 -1.96875q-4.53125 0 -7.421875 2.109375q-2.875 2.09375 -4.21875 5.84375q-1.34375 3.75 -1.34375 8.625l-9.921875 0q0 -6.890625 2.546875 -12.59375q2.546875 -5.71875 7.640625 -9.109375q5.109375 -3.390625 12.71875 -3.390625q6.546875 0 11.21875 2.71875q4.671875 2.71875 7.15625 7.625q2.5 4.890625 2.5 11.4375q0 3.59375 -0.984375 7.265625q-0.96875 3.65625 -2.6875 7.296875q-1.703125 3.640625 -4.0 7.171875q-2.28125 3.515625 -4.921875 6.9375l-18.078125 23.671875l33.703125 0zm83.975586 -18.921875l0 8.515625l-49.828125 0l0 -6.109375l30.28125 -56.484375l7.953125 0l-7.953125 16.34375l-19.25 37.734375l38.796875 0zm-9.078125 -54.078125l0 81.515625l-9.90625 0l0 -81.515625l9.90625 0zm64.61597 73.0l0 8.515625l-45.578125 0l0 -7.453125l22.453125 -29.71875q4.140625 -5.484375 6.328125 -9.3125q2.1875 -3.84375 3.015625 -6.890625q0.84375 -3.0625 0.84375 -6.25q0 -4.03125 -1.296875 -7.296875q-1.28125 -3.28125 -3.75 -5.234375q-2.453125 -1.96875 -5.921875 -1.96875q-4.53125 0 -7.421875 2.109375q-2.875 2.09375 -4.21875 5.84375q-1.34375 3.75 -1.34375 8.625l-9.921875 0q0 -6.890625 2.546875 -12.59375q2.546875 -5.71875 7.640625 -9.109375q5.109375 -3.390625 12.71875 -3.390625q6.546875 0 11.21875 2.71875q4.671875 2.71875 7.15625 7.625q2.5 4.890625 2.5 11.4375q0 3.59375 -0.984375 7.265625q-0.96875 3.65625 -2.6875 7.296875q-1.703125 3.640625 -4.0 7.171875q-2.28125 3.515625 -4.921875 6.9375l-18.078125 23.671875l33.703125 0zm40.522217 -73.453125l0 81.96875l-9.90625 0l0 -69.03125l-17.125 7.609375l0 -9.34375l25.53125 -11.203125l1.5 0zm65.39746 43.171875l-7.890625 -2.125l3.46875 -40.59375l35.5 0l0 9.578125l-27.15625 0l-1.90625 22.171875q1.90625 -1.296875 4.59375 -2.40625q2.6875 -1.125 6.265625 -1.125q4.8125 0 8.59375 1.9375q3.78125 1.921875 6.40625 5.515625q2.640625 3.578125 4.03125 8.625q1.40625 5.03125 1.40625 11.234375q0 5.890625 -1.375 10.8125q-1.375 4.921875 -4.140625 8.59375q-2.765625 3.671875 -6.9375 5.6875q-4.171875 2.015625 -9.71875 2.015625q-4.140625 0 -7.84375 -1.375q-3.6875 -1.375 -6.625 -4.203125q-2.9375 -2.828125 -4.796875 -7.046875q-1.84375 -4.234375 -2.28125 -9.9375l9.34375 0q0.5625 4.59375 2.15625 7.734375q1.59375 3.125 4.140625 4.71875q2.546875 1.59375 5.90625 1.59375q2.859375 0 5.15625 -1.28125q2.296875 -1.296875 3.859375 -3.703125q1.5625 -2.40625 2.40625 -5.8125q0.84375 -3.421875 0.84375 -7.671875q0 -3.875 -0.84375 -7.171875q-0.84375 -3.296875 -2.53125 -5.765625q-1.671875 -2.46875 -4.046875 -3.828125q-2.375 -1.375 -5.515625 -1.375q-4.203125 0 -6.1875 1.40625q-1.984375 1.390625 -4.28125 3.796875zm56.60034 0l-7.890625 -2.125l3.46875 -40.59375l35.5 0l0 9.578125l-27.15625 0l-1.90625 22.171875q1.90625 -1.296875 4.59375 -2.40625q2.6875 -1.125 6.265625 -1.125q4.8125 0 8.59375 1.9375q3.78125 1.921875 6.40625 5.515625q2.640625 3.578125 4.03125 8.625q1.40625 5.03125 1.40625 11.234375q0 5.890625 -1.375 10.8125q-1.375 4.921875 -4.140625 8.59375q-2.765625 3.671875 -6.9375 5.6875q-4.171875 2.015625 -9.71875 2.015625q-4.140625 0 -7.84375 -1.375q-3.6875 -1.375 -6.625 -4.203125q-2.9375 -2.828125 -4.796875 -7.046875q-1.84375 -4.234375 -2.28125 -9.9375l9.34375 0q0.5625 4.59375 2.15625 7.734375q1.59375 3.125 4.140625 4.71875q2.546875 1.59375 5.90625 1.59375q2.859375 0 5.15625 -1.28125q2.296875 -1.296875 3.859375 -3.703125q1.5625 -2.40625 2.40625 -5.8125q0.84375 -3.421875 0.84375 -7.671875q0 -3.875 -0.84375 -7.171875q-0.84375 -3.296875 -2.53125 -5.765625q-1.671875 -2.46875 -4.046875 -3.828125q-2.375 -1.375 -5.515625 -1.375q-4.203125 0 -6.1875 1.40625q-1.984375 1.390625 -4.28125 3.796875zm82.913086 0l-7.890625 -2.125l3.46875 -40.59375l35.5 0l0 9.578125l-27.15625 0l-1.90625 22.171875q1.90625 -1.296875 4.59375 -2.40625q2.6875 -1.125 6.265625 -1.125q4.8125 0 8.59375 1.9375q3.78125 1.921875 6.40625 5.515625q2.640625 3.578125 4.03125 8.625q1.40625 5.03125 1.40625 11.234375q0 5.890625 -1.375 10.8125q-1.375 4.921875 -4.140625 8.59375q-2.765625 3.671875 -6.9375 5.6875q-4.171875 2.015625 -9.71875 2.015625q-4.140625 0 -7.84375 -1.375q-3.6875 -1.375 -6.625 -4.203125q-2.9375 -2.828125 -4.796875 -7.046875q-1.84375 -4.234375 -2.28125 -9.9375l9.34375 0q0.5625 4.59375 2.15625 7.734375q1.59375 3.125 4.140625 4.71875q2.546875 1.59375 5.90625 1.59375q2.859375 0 5.15625 -1.28125q2.296875 -1.296875 3.859375 -3.703125q1.5625 -2.40625 2.40625 -5.8125q0.84375 -3.421875 0.84375 -7.671875q0 -3.875 -0.84375 -7.171875q-0.84375 -3.296875 -2.53125 -5.765625q-1.671875 -2.46875 -4.046875 -3.828125q-2.375 -1.375 -5.515625 -1.375q-4.203125 0 -6.1875 1.40625q-1.984375 1.390625 -4.28125 3.796875zm56.60034 0l-7.890625 -2.125l3.46875 -40.59375l35.5 0l0 9.578125l-27.15625 0l-1.90625 22.171875q1.90625 -1.296875 4.59375 -2.40625q2.6875 -1.125 6.265625 -1.125q4.8125 0 8.59375 1.9375q3.78125 1.921875 6.40625 5.515625q2.640625 3.578125 4.03125 8.625q1.40625 5.03125 1.40625 11.234375q0 5.890625 -1.375 10.8125q-1.375 4.921875 -4.140625 8.59375q-2.765625 3.671875 -6.9375 5.6875q-4.171875 2.015625 -9.71875 2.015625q-4.140625 0 -7.84375 -1.375q-3.6875 -1.375 -6.625 -4.203125q-2.9375 -2.828125 -4.796875 -7.046875q-1.84375 -4.234375 -2.28125 -9.9375l9.34375 0q0.5625 4.59375 2.15625 7.734375q1.59375 3.125 4.140625 4.71875q2.546875 1.59375 5.90625 1.59375q2.859375 0 5.15625 -1.28125q2.296875 -1.296875 3.859375 -3.703125q1.5625 -2.40625 2.40625 -5.8125q0.84375 -3.421875 0.84375 -7.671875q0 -3.875 -0.84375 -7.171875q-0.84375 -3.296875 -2.53125 -5.765625q-1.671875 -2.46875 -4.046875 -3.828125q-2.375 -1.375 -5.515625 -1.375q-4.203125 0 -6.1875 1.40625q-1.984375 1.390625 -4.28125 3.796875z" fill-rule="nonzero"/><path fill="#000000" fill-opacity="0.0" d="m1998.5275 327.14056l0 0c0 -107.11075 86.64905 -193.94115 193.53601 -193.94115l0 0c51.3291 0 100.555664 20.43303 136.85083 56.804047c36.29492 36.371017 56.685303 85.7007 56.685303 137.1371l0 0c0 107.11072 -86.648926 193.9411 -193.53613 193.9411l0 0c-106.88696 0 -193.53601 -86.83038 -193.53601 -193.9411z" fill-rule="evenodd"/><path stroke="#0b5394" stroke-width="12.0" stroke-linejoin="round" stroke-linecap="butt" d="m1998.5275 327.14056l0 0c0 -107.11075 86.64905 -193.94115 193.53601 -193.94115l0 0c51.3291 0 100.555664 20.43303 136.85083 56.804047c36.29492 36.371017 56.685303 85.7007 56.685303 137.1371l0 0c0 107.11072 -86.648926 193.9411 -193.53613 193.9411l0 0c-106.88696 0 -193.53601 -86.83038 -193.53601 -193.9411z" fill-rule="evenodd"/><path fill="#000000" fill-opacity="0.0" d="m2273.9033 327.14056l0 0c0 -107.11075 86.64917 -193.94115 193.53613 -193.94115l0 0c51.328857 0 100.555664 20.43303 136.85059 56.804047c36.295166 36.371017 56.685303 85.7007 56.685303 137.1371l0 0c0 107.11072 -86.648926 193.9411 -193.53589 193.9411l0 0c-106.88696 0 -193.53613 -86.83038 -193.53613 -193.9411z" fill-rule="evenodd"/><path stroke="#0b5394" stroke-width="12.0" stroke-linejoin="round" stroke-linecap="butt" d="m2273.9033 327.14056l0 0c0 -107.11075 86.64917 -193.94115 193.53613 -193.94115l0 0c51.328857 0 100.555664 20.43303 136.85059 56.804047c36.295166 36.371017 56.685303 85.7007 56.685303 137.1371l0 0c0 107.11072 -86.648926 193.9411 -193.53589 193.9411l0 0c-106.88696 0 -193.53613 -86.83038 -193.53613 -193.9411z" fill-rule="evenodd"/><path fill="#000000" fill-opacity="0.0" d="m2135.8 572.86176l0 0c0 -107.11075 86.64917 -193.94113 193.53613 -193.94113l0 0c51.328857 0 100.555664 20.433014 136.85059 56.804016c36.295166 36.371033 56.685547 85.700714 56.685547 137.13712l0 0c0 107.11072 -86.64917 193.9411 -193.53613 193.9411l0 0c-106.88696 0 -193.53613 -86.83038 -193.53613 -193.9411z" fill-rule="evenodd"/><path stroke="#0b5394" stroke-width="12.0" stroke-linejoin="round" stroke-linecap="butt" d="m2135.8 572.86176l0 0c0 -107.11075 86.64917 -193.94113 193.53613 -193.94113l0 0c51.328857 0 100.555664 20.433014 136.85059 56.804016c36.295166 36.371033 56.685547 85.700714 56.685547 137.13712l0 0c0 107.11072 -86.64917 193.9411 -193.53613 193.9411l0 0c-106.88696 0 -193.53613 -86.83038 -193.53613 -193.9411z" fill-rule="evenodd"/></g></svg>